<svg width="28" height="43" viewBox="0 0 28 43" fill="none" xmlns="http://www.w3.org/2000/svg">
<path fill-rule="evenodd" clip-rule="evenodd" d="M13.7832 0C13.3771 0 12.9876 0.161326 12.7005 0.448491C12.4133 0.735656 12.252 1.12514 12.252 1.53125V37.6473L2.61731 28.0096C2.32979 27.7221 1.93981 27.5606 1.53319 27.5606C1.12656 27.5606 0.736586 27.7221 0.449056 28.0096C0.16153 28.2971 0 28.6871 0 29.0937C0 29.5004 0.16153 29.8903 0.449056 30.1779L12.6991 42.4279C12.8413 42.5705 13.0103 42.6836 13.1963 42.7608C13.3824 42.838 13.5818 42.8777 13.7832 42.8777C13.9846 42.8777 14.1841 42.838 14.3701 42.7608C14.5561 42.6836 14.7251 42.5705 14.8673 42.4279L27.1173 30.1779C27.2597 30.0355 27.3726 29.8665 27.4497 29.6805C27.5267 29.4945 27.5664 29.2951 27.5664 29.0937C27.5664 28.6871 27.4049 28.2971 27.1173 28.0096C26.8298 27.7221 26.4398 27.5606 26.0332 27.5606C25.6266 27.5606 25.2366 27.7221 24.9491 28.0096L15.3145 37.6473V1.53125C15.3145 1.12514 15.1531 0.735656 14.866 0.448491C14.5788 0.161326 14.1893 0 13.7832 0Z" fill="white"/>
</svg>
