<svg width="29" height="43" viewBox="0 0 29 43" fill="none" xmlns="http://www.w3.org/2000/svg">
<path fill-rule="evenodd" clip-rule="evenodd" d="M14.5 0.0626897C14.0939 0.0626897 13.7044 0.224016 13.4173 0.511181C13.1301 0.798346 12.9688 1.18783 12.9688 1.59394L12.9688 37.71L3.33414 28.0723C3.04662 27.7848 2.65664 27.6233 2.25002 27.6233C1.84339 27.6233 1.45342 27.7848 1.16589 28.0723C0.878364 28.3598 0.716834 28.7498 0.716834 29.1564C0.716834 29.5631 0.878364 29.953 1.16589 30.2406L13.4159 42.4906C13.5581 42.6332 13.7271 42.7463 13.9131 42.8235C14.0992 42.9007 14.2986 42.9404 14.5 42.9404C14.7014 42.9404 14.9009 42.9007 15.0869 42.8235C15.2729 42.7463 15.4419 42.6332 15.5841 42.4906L27.8341 30.2406C27.9765 30.0982 28.0894 29.9292 28.1665 29.7432C28.2435 29.5572 28.2832 29.3578 28.2832 29.1564C28.2832 28.7498 28.1217 28.3598 27.8341 28.0723C27.5466 27.7848 27.1566 27.6233 26.75 27.6233C26.3434 27.6233 25.9534 27.7848 25.6659 28.0723L16.0313 37.71L16.0313 1.59394C16.0313 1.18783 15.8699 0.798346 15.5828 0.511181C15.2956 0.224016 14.9061 0.0626897 14.5 0.0626897Z" fill="#212329"/>
</svg>
