<svg width="545" height="545" viewBox="0 0 545 545" fill="none" xmlns="http://www.w3.org/2000/svg">
<path d="M0 272.5C0 122.002 122.002 0 272.5 0V0C422.998 0 545 122.002 545 272.5V272.5V272.5C545 422.998 422.998 545 272.5 545V545C122.002 545 0 422.998 0 272.5V272.5V272.5Z" fill="#D9D9D9"/>
<path d="M272.5 384.194C297.188 384.194 318.172 374.594 335.453 355.392C352.734 336.191 361.375 312.875 361.375 285.444C361.375 258.014 352.734 234.698 335.453 215.497C318.172 196.295 297.188 186.694 272.5 186.694C247.813 186.694 226.828 196.295 209.547 215.497C192.266 234.698 183.625 258.014 183.625 285.444C183.625 312.875 192.266 336.191 209.547 355.392C226.828 374.594 247.813 384.194 272.5 384.194ZM272.5 340.306C258.675 340.306 246.99 335.002 237.444 324.396C227.898 313.789 223.125 300.806 223.125 285.444C223.125 270.083 227.898 257.1 237.444 246.493C246.99 235.887 258.675 230.583 272.5 230.583C286.325 230.583 298.01 235.887 307.556 246.493C317.102 257.1 321.875 270.083 321.875 285.444C321.875 300.806 317.102 313.789 307.556 324.396C298.01 335.002 286.325 340.306 272.5 340.306ZM114.5 461C103.638 461 94.3385 456.703 86.6031 448.108C78.8677 439.513 75 429.181 75 417.111V153.778C75 141.708 78.8677 131.376 86.6031 122.781C94.3385 114.186 103.638 109.889 114.5 109.889H176.713L213.25 66H331.75L368.288 109.889H430.5C441.363 109.889 450.661 114.186 458.397 122.781C466.132 131.376 470 141.708 470 153.778V417.111C470 429.181 466.132 439.513 458.397 448.108C450.661 456.703 441.363 461 430.5 461H114.5ZM114.5 417.111H430.5V153.778H350.513L314.469 109.889H230.531L194.488 153.778H114.5V417.111Z" fill="black"/>
</svg>
