<svg width="130" height="130" viewBox="0 0 130 130" fill="none" xmlns="http://www.w3.org/2000/svg">
<path d="M64.9997 94.7917C71.7705 94.7917 77.5257 92.4219 82.2653 87.6823C87.0049 82.9427 89.3747 77.1875 89.3747 70.4167C89.3747 63.6458 87.0049 57.8906 82.2653 53.151C77.5257 48.4115 71.7705 46.0417 64.9997 46.0417C58.2288 46.0417 52.4736 48.4115 47.7341 53.151C42.9945 57.8906 40.6247 63.6458 40.6247 70.4167C40.6247 77.1875 42.9945 82.9427 47.7341 87.6823C52.4736 92.4219 58.2288 94.7917 64.9997 94.7917ZM64.9997 83.9583C61.208 83.9583 58.0031 82.6493 55.3851 80.0313C52.767 77.4132 51.458 74.2083 51.458 70.4167C51.458 66.625 52.767 63.4201 55.3851 60.8021C58.0031 58.184 61.208 56.875 64.9997 56.875C68.7913 56.875 71.9962 58.184 74.6143 60.8021C77.2323 63.4201 78.5413 66.625 78.5413 70.4167C78.5413 74.2083 77.2323 77.4132 74.6143 80.0313C71.9962 82.6493 68.7913 83.9583 64.9997 83.9583ZM21.6663 113.75C18.6872 113.75 16.1368 112.689 14.0153 110.568C11.8938 108.446 10.833 105.896 10.833 102.917V37.9167C10.833 34.9375 11.8938 32.3872 14.0153 30.2656C16.1368 28.1441 18.6872 27.0833 21.6663 27.0833H38.7288L48.7497 16.25H81.2497L91.2705 27.0833H108.333C111.312 27.0833 113.863 28.1441 115.984 30.2656C118.106 32.3872 119.166 34.9375 119.166 37.9167V102.917C119.166 105.896 118.106 108.446 115.984 110.568C113.863 112.689 111.312 113.75 108.333 113.75H21.6663ZM21.6663 102.917H108.333V37.9167H86.3955L76.5101 27.0833H53.4893L43.6038 37.9167H21.6663V102.917Z" fill="white"/>
</svg>
