<svg width="22" height="22" viewBox="0 0 22 22" fill="none" xmlns="http://www.w3.org/2000/svg">
<path d="M10.9999 21.8836C9.50468 21.8836 8.09379 21.5981 6.76726 21.0272C5.44073 20.4562 4.28606 19.6794 3.30326 18.6966C2.32046 17.7138 1.54359 16.5591 0.972636 15.2326C0.401686 13.906 0.116211 12.4951 0.116211 10.9999C0.116211 9.50006 0.401661 8.08834 0.972561 6.76476C1.54348 5.44116 2.32029 4.28749 3.30301 3.30376C4.28573 2.32003 5.44041 1.54284 6.76706 0.972186C8.09373 0.401536 9.50468 0.116211 10.9999 0.116211C11.3953 0.116211 11.7299 0.253154 12.0038 0.527037C12.2776 0.80092 12.4146 1.13554 12.4146 1.53089C12.4146 1.92624 12.2776 2.26085 12.0038 2.53474C11.7299 2.80862 11.3953 2.94556 10.9999 2.94556C8.75974 2.94556 6.85731 3.72777 5.29261 5.29219C3.72791 6.8566 2.94556 8.75869 2.94556 10.9984C2.94556 13.2382 3.72777 15.1408 5.29219 16.7062C6.8566 18.2716 8.75869 19.0543 10.9984 19.0543C13.2382 19.0543 15.1408 18.2719 16.7062 16.7072C18.2716 15.1425 19.0543 13.2401 19.0543 10.9999C19.0543 10.6046 19.1912 10.2699 19.4651 9.99606C19.739 9.72218 20.0736 9.58524 20.4689 9.58524C20.8643 9.58524 21.1989 9.72218 21.4728 9.99606C21.7467 10.2699 21.8836 10.6046 21.8836 10.9999C21.8836 12.4951 21.5982 13.9061 21.0273 15.2328C20.4563 16.5595 19.6795 17.7143 18.6968 18.6973C17.7141 19.6802 16.5607 20.457 15.2366 21.0276C13.9125 21.5983 12.5003 21.8836 10.9999 21.8836Z" fill="#E8E8E8"/>
</svg>
