<svg width="57" height="278" viewBox="0 0 57 278" fill="none" xmlns="http://www.w3.org/2000/svg">
<path d="M17.5759 205.888C17.5759 206.027 17.5439 206.155 17.4799 206.272C17.4052 206.389 17.3092 206.523 17.1919 206.672L17.176 206.704C16.9733 206.907 16.7492 207.168 16.5039 207.488C16.2586 207.808 16.0292 208.165 15.8159 208.56C15.6026 208.955 15.4212 209.381 15.2719 209.84C15.1226 210.288 15.0479 210.747 15.0479 211.216C15.0479 211.813 15.1172 212.341 15.2559 212.8C15.3839 213.259 15.5652 213.643 15.7999 213.952C16.0239 214.261 16.2906 214.496 16.5999 214.656C16.9092 214.816 17.2399 214.896 17.5919 214.896C17.9759 214.896 18.3119 214.779 18.5999 214.544C18.8879 214.299 19.1439 213.973 19.3679 213.568C19.5919 213.152 19.8 212.677 19.992 212.144C20.1733 211.611 20.3546 211.051 20.5359 210.464C20.7386 209.792 20.9572 209.125 21.1919 208.464C21.4266 207.803 21.6933 207.173 21.992 206.576C22.28 205.968 22.6052 205.403 22.9679 204.88C23.3199 204.357 23.7307 203.909 24.2 203.536C24.6587 203.152 25.1759 202.853 25.7519 202.64C26.3172 202.416 26.9573 202.304 27.672 202.304C28.8347 202.304 29.8852 202.539 30.8239 203.008C31.7626 203.477 32.568 204.128 33.24 204.96C33.9013 205.781 34.4133 206.752 34.776 207.872C35.128 208.981 35.304 210.176 35.304 211.456C35.304 212.277 35.2079 213.093 35.0159 213.904C34.8239 214.715 34.552 215.493 34.2 216.24C33.848 216.987 33.4267 217.696 32.936 218.368C32.4347 219.029 31.8747 219.621 31.256 220.144H31.2719L31.208 220.176C30.9413 220.411 30.696 220.528 30.472 220.528C30.3547 220.528 30.2426 220.496 30.1359 220.432C30.0292 220.368 29.912 220.272 29.784 220.144L29.256 219.616C29.1173 219.456 28.9627 219.285 28.792 219.104C28.6213 218.923 28.4666 218.741 28.3279 218.56C28.1892 218.379 28.0719 218.213 27.9759 218.064C27.8799 217.904 27.832 217.776 27.832 217.68C27.832 217.531 27.8799 217.392 27.9759 217.264C28.0719 217.136 28.1626 217.029 28.2479 216.944L28.312 216.88V216.896C28.664 216.523 29 216.107 29.32 215.648C29.64 215.179 29.9279 214.699 30.1839 214.208C30.4292 213.717 30.6266 213.232 30.7759 212.752C30.9146 212.261 30.9839 211.803 30.9839 211.376C30.9839 210.789 30.9092 210.24 30.7599 209.728C30.6106 209.216 30.4026 208.773 30.1359 208.4C29.8586 208.027 29.5279 207.733 29.1439 207.52C28.7599 207.307 28.3332 207.2 27.8639 207.2C27.3946 207.2 26.9946 207.339 26.6639 207.616C26.3226 207.893 26.0293 208.256 25.784 208.704C25.528 209.152 25.3092 209.659 25.1279 210.224C24.9466 210.779 24.7759 211.339 24.6159 211.904C24.2212 213.205 23.7946 214.347 23.3359 215.328C22.8772 216.299 22.3652 217.109 21.7999 217.76C21.2239 218.411 20.5839 218.901 19.8799 219.232C19.1652 219.552 18.3652 219.712 17.4799 219.712C16.4879 219.712 15.5866 219.515 14.7759 219.12C13.9546 218.715 13.2559 218.144 12.6799 217.408C12.0932 216.672 11.6399 215.787 11.3199 214.752C10.9892 213.717 10.8239 212.56 10.8239 211.28C10.8239 210.309 10.9786 209.323 11.2879 208.32C11.5866 207.317 12.0026 206.389 12.5359 205.536C12.6959 205.28 12.8772 205.019 13.0799 204.752C13.2826 204.485 13.4906 204.24 13.7039 204.016C13.9066 203.792 14.1092 203.611 14.3119 203.472C14.5039 203.323 14.6692 203.248 14.8079 203.248C14.9359 203.248 15.0692 203.28 15.2079 203.344C15.3359 203.408 15.4532 203.488 15.5599 203.584L16.0719 204.064H16.0559C16.2266 204.224 16.4026 204.389 16.5839 204.56C16.7652 204.731 16.9306 204.901 17.0799 205.072C17.2186 205.243 17.3359 205.397 17.4319 205.536C17.5279 205.675 17.5759 205.792 17.5759 205.888ZM29.672 184.987C29.5547 184.806 29.4853 184.656 29.464 184.539C29.432 184.411 29.416 184.304 29.416 184.219C29.4267 184.038 29.5226 183.883 29.7039 183.755L30.2319 183.371L31.8479 182.235C31.9226 182.182 32.0027 182.139 32.088 182.107C32.1627 182.075 32.232 182.059 32.296 182.059C32.4667 182.059 32.6212 182.118 32.7599 182.235C32.8879 182.352 33.0213 182.507 33.16 182.699C33.8213 183.606 34.3546 184.587 34.7599 185.643C35.1652 186.688 35.368 187.84 35.368 189.099C35.368 190.048 35.2453 190.971 35 191.867C34.744 192.752 34.392 193.584 33.944 194.363C33.4853 195.131 32.9413 195.835 32.312 196.475C31.672 197.115 30.9626 197.67 30.1839 198.139C29.4052 198.598 28.568 198.955 27.672 199.211C26.776 199.456 25.8426 199.579 24.8719 199.579C23.9012 199.579 22.9679 199.456 22.0719 199.211C21.1759 198.955 20.3386 198.598 19.5599 198.139C18.7812 197.67 18.0772 197.115 17.4479 196.475C16.8079 195.835 16.2639 195.131 15.8159 194.363C15.3572 193.584 15.0052 192.752 14.7599 191.867C14.5039 190.971 14.3759 190.048 14.3759 189.099C14.3759 187.915 14.5572 186.795 14.9199 185.739C15.2826 184.683 15.7732 183.744 16.3919 182.923L16.3759 182.939C16.5252 182.79 16.6586 182.646 16.7759 182.507C16.8826 182.358 17.0532 182.283 17.2879 182.283C17.3519 182.283 17.4266 182.288 17.5119 182.299C17.5972 182.299 17.6773 182.326 17.752 182.379L19.752 183.691C20.072 183.904 20.2319 184.139 20.2319 184.395C20.2319 184.576 20.1412 184.779 19.9599 185.003C19.5012 185.547 19.1279 186.182 18.8399 186.907C18.5519 187.632 18.408 188.379 18.408 189.147C18.408 189.979 18.584 190.763 18.936 191.499C19.2773 192.224 19.7466 192.864 20.3439 193.419C20.9306 193.974 21.6187 194.411 22.408 194.731C23.1867 195.051 24.0079 195.211 24.8719 195.211C25.7572 195.211 26.5893 195.051 27.368 194.731C28.1467 194.411 28.8239 193.979 29.3999 193.435C29.9759 192.88 30.4346 192.235 30.7759 191.499C31.1066 190.763 31.2719 189.979 31.2719 189.147C31.2719 188.24 31.1172 187.456 30.8079 186.795C30.4879 186.134 30.1093 185.531 29.672 184.987ZM15.6239 178.729C15.3146 178.729 15.0799 178.628 14.9199 178.425C14.7599 178.212 14.6799 177.983 14.6799 177.737V175.705C14.6799 175.439 14.7599 175.236 14.9199 175.097C15.0799 174.959 15.2772 174.852 15.5119 174.777C15.7466 174.703 16.0027 174.649 16.28 174.617C16.5467 174.585 16.792 174.548 17.016 174.505C16.6853 174.271 16.3652 174.009 16.0559 173.721C15.7359 173.423 15.4532 173.087 15.2079 172.714C14.9626 172.34 14.7652 171.919 14.6159 171.449C14.4666 170.98 14.3919 170.447 14.3919 169.849C14.3919 169.316 14.4292 168.836 14.5039 168.409C14.5679 167.983 14.6746 167.577 14.8239 167.193C14.9626 166.799 15.1492 166.415 15.3839 166.041C15.6079 165.668 15.8746 165.268 16.1839 164.841C16.3012 164.66 16.4346 164.505 16.5839 164.377C16.7332 164.239 16.9092 164.169 17.1119 164.169C17.1972 164.18 17.288 164.196 17.384 164.217C17.48 164.239 17.576 164.281 17.672 164.345L19.752 165.657C19.8587 165.743 19.9387 165.844 19.992 165.961C20.0347 166.068 20.0559 166.164 20.0559 166.249C20.0559 166.42 20.0132 166.585 19.9279 166.745C19.7359 167.097 19.5547 167.417 19.384 167.705C19.2133 167.993 19.0692 168.276 18.9519 168.553C18.8239 168.831 18.7279 169.119 18.6639 169.417C18.5892 169.705 18.5519 170.031 18.5519 170.393C18.5519 171.343 18.856 172.148 19.464 172.809C20.072 173.46 20.9092 173.897 21.9759 174.121H34.04C34.68 174.121 35 174.452 35 175.113V177.737C35 178.399 34.68 178.729 34.04 178.729H15.6239ZM24.8719 161.981C23.9012 161.981 22.9679 161.858 22.0719 161.613C21.1652 161.357 20.3227 160.999 19.544 160.541C18.7653 160.082 18.0612 159.533 17.4319 158.893C16.7919 158.253 16.2479 157.543 15.7999 156.765C15.3412 155.986 14.9892 155.154 14.7439 154.269C14.4879 153.373 14.3599 152.439 14.3599 151.469C14.3599 150.509 14.4879 149.581 14.7439 148.685C14.9892 147.789 15.3412 146.957 15.7999 146.189C16.2479 145.41 16.7919 144.701 17.4319 144.061C18.0612 143.421 18.7653 142.871 19.544 142.413C20.3227 141.954 21.1652 141.602 22.0719 141.357C22.9679 141.101 23.9012 140.973 24.8719 140.973C25.8426 140.973 26.776 141.101 27.672 141.357C28.568 141.602 29.4052 141.954 30.1839 142.413C30.9519 142.871 31.656 143.421 32.296 144.061C32.936 144.701 33.4853 145.41 33.944 146.189C34.392 146.957 34.744 147.789 35 148.685C35.2453 149.581 35.368 150.509 35.368 151.469C35.368 152.439 35.2453 153.373 35 154.269C34.744 155.154 34.392 155.986 33.944 156.765C33.4853 157.543 32.936 158.253 32.296 158.893C31.656 159.533 30.9519 160.082 30.1839 160.541C29.4052 160.999 28.568 161.357 27.672 161.613C26.776 161.858 25.8426 161.981 24.8719 161.981ZM24.8719 157.469C25.7252 157.469 26.536 157.319 27.304 157.021C28.0613 156.722 28.7226 156.306 29.2879 155.773C29.8532 155.239 30.3013 154.61 30.632 153.885C30.9627 153.149 31.1279 152.349 31.1279 151.485C31.1279 150.642 30.9627 149.863 30.632 149.149C30.3013 148.423 29.8532 147.799 29.2879 147.277C28.7226 146.754 28.0613 146.349 27.304 146.061C26.536 145.762 25.7252 145.613 24.8719 145.613C24.0292 145.613 23.2239 145.762 22.4559 146.061C21.6879 146.349 21.0159 146.754 20.4399 147.277C19.8532 147.799 19.3892 148.423 19.0479 149.149C18.6959 149.863 18.5199 150.642 18.5199 151.485C18.5199 152.349 18.6959 153.149 19.0479 153.885C19.3892 154.61 19.8532 155.239 20.4399 155.773C21.0159 156.306 21.6879 156.722 22.4559 157.021C23.2239 157.319 24.0292 157.469 24.8719 157.469ZM9.60795 137.322C9.33062 137.322 9.10128 137.248 8.91995 137.098C8.73862 136.949 8.64795 136.72 8.64795 136.41V133.61C8.64795 133.397 8.73862 133.2 8.91995 133.018C9.10128 132.826 9.33062 132.73 9.60795 132.73H34.04C34.36 132.73 34.5999 132.821 34.7599 133.002C34.9199 133.173 35 133.408 35 133.706V136.378C35 136.72 34.9199 136.965 34.7599 137.114C34.5999 137.253 34.36 137.322 34.04 137.322H9.60795ZM9.60795 128.229C9.33062 128.229 9.10128 128.154 8.91995 128.005C8.73862 127.855 8.64795 127.626 8.64795 127.317V124.517C8.64795 124.303 8.73862 124.106 8.91995 123.925C9.10128 123.733 9.33062 123.637 9.60795 123.637H34.04C34.36 123.637 34.5999 123.727 34.7599 123.909C34.9199 124.079 35 124.314 35 124.613V127.285C35 127.626 34.9199 127.871 34.7599 128.021C34.5999 128.159 34.36 128.229 34.04 128.229H9.60795ZM23.1439 88.3996C24.2532 88.3996 25.3199 88.5436 26.3439 88.8316C27.3572 89.1196 28.3066 89.525 29.1919 90.0476C30.0666 90.5703 30.8613 91.1996 31.576 91.9356C32.2907 92.661 32.904 93.4716 33.416 94.3676C33.9173 95.2636 34.3067 96.229 34.584 97.2636C34.8613 98.2876 35 99.3596 35 100.48V108.16C35 108.352 34.9573 108.522 34.872 108.672C34.7867 108.821 34.6052 108.896 34.3279 108.896H11.9919C11.4906 108.896 11.2399 108.65 11.2399 108.16V100.48C11.2399 98.7836 11.5492 97.205 12.1679 95.7436C12.7759 94.2716 13.6186 92.9916 14.6959 91.9036C15.7626 90.8156 17.0212 89.9623 18.4719 89.3436C19.9119 88.7143 21.4692 88.3996 23.1439 88.3996ZM15.6399 104.272H30.6159V102.752C30.6159 101.952 30.6 101.152 30.568 100.352C30.536 99.2956 30.3226 98.3196 29.9279 97.4236C29.5226 96.5276 28.984 95.7543 28.312 95.1036C27.64 94.4423 26.8559 93.9303 25.9599 93.5676C25.0532 93.1943 24.0826 93.0076 23.0479 93.0076C21.9492 93.0076 20.9467 93.2103 20.04 93.6156C19.1227 94.0103 18.3386 94.5543 17.6879 95.2476C17.0372 95.941 16.5359 96.7516 16.1839 97.6796C15.8212 98.6076 15.6399 99.5943 15.6399 100.64V104.272ZM24.8719 85.1369C23.9012 85.1369 22.9679 85.0142 22.0719 84.7689C21.1652 84.5129 20.3227 84.1556 19.544 83.6969C18.7653 83.2382 18.0612 82.6889 17.4319 82.0489C16.7919 81.4089 16.2479 80.6996 15.7999 79.9209C15.3412 79.1422 14.9892 78.3102 14.7439 77.4249C14.4879 76.5289 14.3599 75.5956 14.3599 74.6249C14.3599 73.6649 14.4879 72.7369 14.7439 71.8409C14.9892 70.9449 15.3412 70.1129 15.7999 69.3449C16.2479 68.5662 16.7919 67.8569 17.4319 67.2169C18.0612 66.5769 18.7653 66.0276 19.544 65.5689C20.3227 65.1102 21.1652 64.7582 22.0719 64.5129C22.9679 64.2569 23.9012 64.1289 24.8719 64.1289C25.8426 64.1289 26.776 64.2569 27.672 64.5129C28.568 64.7582 29.4052 65.1102 30.1839 65.5689C30.9519 66.0276 31.656 66.5769 32.296 67.2169C32.936 67.8569 33.4853 68.5662 33.944 69.3449C34.392 70.1129 34.744 70.9449 35 71.8409C35.2453 72.7369 35.368 73.6649 35.368 74.6249C35.368 75.5956 35.2453 76.5289 35 77.4249C34.744 78.3102 34.392 79.1422 33.944 79.9209C33.4853 80.6996 32.936 81.4089 32.296 82.0489C31.656 82.6889 30.9519 83.2382 30.1839 83.6969C29.4052 84.1556 28.568 84.5129 27.672 84.7689C26.776 85.0142 25.8426 85.1369 24.8719 85.1369ZM24.8719 80.6249C25.7252 80.6249 26.536 80.4756 27.304 80.1769C28.0613 79.8782 28.7226 79.4622 29.2879 78.9289C29.8532 78.3956 30.3013 77.7662 30.632 77.0409C30.9627 76.3049 31.1279 75.5049 31.1279 74.6409C31.1279 73.7982 30.9627 73.0196 30.632 72.3049C30.3013 71.5796 29.8532 70.9556 29.2879 70.4329C28.7226 69.9102 28.0613 69.5049 27.304 69.2169C26.536 68.9182 25.7252 68.7689 24.8719 68.7689C24.0292 68.7689 23.2239 68.9182 22.4559 69.2169C21.6879 69.5049 21.0159 69.9102 20.4399 70.4329C19.8532 70.9556 19.3892 71.5796 19.0479 72.3049C18.6959 73.0196 18.5199 73.7982 18.5199 74.6409C18.5199 75.5049 18.6959 76.3049 19.0479 77.0409C19.3892 77.7662 19.8532 78.3956 20.4399 78.9289C21.0159 79.4622 21.6879 79.8782 22.4559 80.1769C23.2239 80.4756 24.0292 80.6249 24.8719 80.6249ZM15.9759 62.0946C15.9759 62.0946 15.9546 62.1 15.9119 62.1106C15.8692 62.1213 15.8159 62.1373 15.7519 62.1586C15.6879 62.1693 15.6186 62.18 15.5439 62.1907C15.4692 62.2013 15.4052 62.2066 15.3519 62.2066C15.1492 62.2066 14.9892 62.1373 14.8719 61.9986C14.7439 61.8493 14.6799 61.6306 14.6799 61.3426V58.4626C14.6799 57.9613 14.9252 57.6253 15.4159 57.4546C15.9706 57.2626 16.6267 57.0333 17.384 56.7666C18.1413 56.4893 18.9412 56.2013 19.7839 55.9026C20.6266 55.5933 21.4799 55.2786 22.3439 54.9586C23.1972 54.6386 24.0079 54.34 24.7759 54.0626C25.5332 53.7746 26.2159 53.5186 26.8239 53.2946C27.4212 53.06 27.8746 52.8786 28.1839 52.7506C26.8292 52.2706 25.0959 51.6573 22.9839 50.9106C20.8719 50.164 18.3439 49.252 15.3999 48.1746C15.1439 48.0786 14.9626 47.9506 14.8559 47.7906C14.7386 47.62 14.6799 47.4066 14.6799 47.1506V44.3666C14.6799 44.036 14.7332 43.812 14.8399 43.6946C14.9466 43.5666 15.0852 43.5026 15.2559 43.5026C15.3412 43.5026 15.4479 43.5186 15.5759 43.5506C15.7039 43.572 15.7999 43.5933 15.8639 43.6146L19.912 45.2786C20.4453 45.0653 21.0426 44.82 21.7039 44.5426C22.3546 44.2546 23.0426 43.956 23.7679 43.6466C24.4826 43.3266 25.2132 43.012 25.9599 42.7026C26.7066 42.3826 27.4319 42.084 28.1359 41.8066C27.6239 41.6146 27.032 41.3906 26.36 41.1346C25.688 40.868 24.9732 40.596 24.2159 40.3186C23.4586 40.0306 22.6799 39.7373 21.8799 39.4386C21.0799 39.1293 20.2959 38.8306 19.5279 38.5426C18.7492 38.244 18.008 37.9613 17.304 37.6946C16.6 37.428 15.9652 37.188 15.3999 36.9746C15.1439 36.8786 14.9626 36.756 14.8559 36.6066C14.7386 36.4573 14.6799 36.26 14.6799 36.0146V33.3586C14.6799 33.0493 14.7279 32.8146 14.8239 32.6546C14.9092 32.4946 15.0639 32.4146 15.2879 32.4146C15.3626 32.4146 15.4639 32.4253 15.5919 32.4466C15.7199 32.468 15.8106 32.4893 15.8639 32.5106L34.36 40.0626C34.4347 40.1053 34.5093 40.1533 34.584 40.2066C34.6587 40.2493 34.728 40.3133 34.792 40.3986C34.856 40.4733 34.9093 40.5746 34.952 40.7026C34.984 40.82 35 40.964 35 41.1346V42.5106C35 42.884 34.9307 43.14 34.792 43.2786C34.6533 43.4173 34.504 43.5293 34.344 43.6146C32.8187 44.244 31.3092 44.868 29.8159 45.4866C28.3119 46.1053 26.7972 46.724 25.2719 47.3426L34.36 51.0226C34.5093 51.108 34.6533 51.2146 34.792 51.3426C34.9307 51.46 35 51.684 35 52.0146V53.4866C35 53.8706 34.9359 54.132 34.8079 54.2707C34.6692 54.3986 34.52 54.4946 34.36 54.5586L15.9759 62.0946ZM15.6239 29.6349C15.4746 29.6349 15.3146 29.5709 15.1439 29.4429C14.9732 29.3149 14.8666 29.1922 14.8239 29.0749C14.7386 28.9896 14.6959 28.8616 14.6959 28.6909C14.6852 28.5202 14.6799 28.3602 14.6799 28.2109V26.5949C14.6799 26.2856 14.7812 26.0562 14.9839 25.9069C15.1866 25.7576 15.4106 25.6562 15.6559 25.6029L17.3519 25.4269C16.9892 25.1816 16.632 24.8829 16.28 24.5309C15.928 24.1682 15.6132 23.7416 15.3359 23.2509C15.0586 22.7602 14.8346 22.2002 14.6639 21.5709C14.4932 20.9416 14.4079 20.2322 14.4079 19.4429C14.4079 18.1842 14.6372 17.0642 15.0959 16.0829C15.5439 15.1016 16.1626 14.2749 16.9519 13.6029C17.7412 12.9309 18.6692 12.4242 19.7359 12.0829C20.8026 11.7309 21.9493 11.5549 23.176 11.5549H33.8479C34.2319 11.5549 34.52 11.6456 34.712 11.8269C34.904 12.0082 35 12.2696 35 12.6109V15.0429C35 15.4696 34.9199 15.7576 34.7599 15.9069C34.5999 16.0456 34.3172 16.1149 33.9119 16.1149H23.2559C22.6906 16.1149 22.1412 16.2109 21.6079 16.4029C21.0639 16.5949 20.5786 16.8776 20.1519 17.2509C19.7252 17.6136 19.3839 18.0669 19.1279 18.6109C18.8719 19.1549 18.7439 19.7842 18.7439 20.4989C18.7439 20.9896 18.8452 21.5016 19.0479 22.0349C19.2399 22.5576 19.5172 23.0376 19.8799 23.4749C20.2426 23.9122 20.6852 24.2749 21.2079 24.5629C21.7199 24.8509 22.3012 25.0002 22.9519 25.0109H33.32C33.5227 25.0109 33.7253 25.0216 33.928 25.0429C34.1307 25.0642 34.312 25.1122 34.472 25.1869C34.632 25.2509 34.7599 25.3469 34.8559 25.4749C34.9519 25.6029 35 25.7682 35 25.9709V28.6109C35 28.9629 34.9199 29.2242 34.7599 29.3949C34.5892 29.5549 34.3493 29.6349 34.04 29.6349H15.6239Z" fill="white"/>
<path fill-rule="evenodd" clip-rule="evenodd" d="M24.5 232.062C24.0939 232.062 23.7044 232.224 23.4173 232.511C23.1301 232.798 22.9688 233.188 22.9688 233.594V269.71L13.3341 260.072C13.0466 259.785 12.6566 259.623 12.25 259.623C11.8434 259.623 11.4534 259.785 11.1659 260.072C10.8784 260.36 10.7168 260.75 10.7168 261.156C10.7168 261.563 10.8784 261.953 11.1659 262.24L23.4159 274.49C23.5581 274.633 23.7271 274.746 23.9131 274.823C24.0992 274.9 24.2986 274.94 24.5 274.94C24.7014 274.94 24.9009 274.9 25.0869 274.823C25.2729 274.746 25.4419 274.633 25.5841 274.49L37.8341 262.24C37.9765 262.098 38.0894 261.929 38.1665 261.743C38.2435 261.557 38.2832 261.358 38.2832 261.156C38.2832 260.75 38.1217 260.36 37.8341 260.072C37.5466 259.785 37.1566 259.623 36.75 259.623C36.3434 259.623 35.9534 259.785 35.6659 260.072L26.0313 269.71V233.594C26.0313 233.188 25.8699 232.798 25.5828 232.511C25.2956 232.224 24.9061 232.062 24.5 232.062Z" fill="white"/>
</svg>
