<svg width="57" height="278" viewBox="0 0 57 278" fill="none" xmlns="http://www.w3.org/2000/svg">
<path d="M17.576 205.888C17.576 206.027 17.544 206.155 17.48 206.272C17.4053 206.389 17.3093 206.523 17.192 206.672L17.176 206.704C16.9733 206.907 16.7493 207.168 16.504 207.488C16.2587 207.808 16.0293 208.165 15.816 208.56C15.6027 208.955 15.4213 209.381 15.272 209.84C15.1227 210.288 15.048 210.747 15.048 211.216C15.048 211.813 15.1173 212.341 15.256 212.8C15.384 213.259 15.5653 213.643 15.8 213.952C16.024 214.261 16.2907 214.496 16.6 214.656C16.9093 214.816 17.24 214.896 17.592 214.896C17.976 214.896 18.312 214.779 18.6 214.544C18.888 214.299 19.144 213.973 19.368 213.568C19.592 213.152 19.8 212.677 19.992 212.144C20.1733 211.611 20.3547 211.051 20.536 210.464C20.7387 209.792 20.9573 209.125 21.192 208.464C21.4267 207.803 21.6933 207.173 21.992 206.576C22.28 205.968 22.6053 205.403 22.968 204.88C23.32 204.357 23.7307 203.909 24.2 203.536C24.6587 203.152 25.176 202.853 25.752 202.64C26.3173 202.416 26.9573 202.304 27.672 202.304C28.8347 202.304 29.8853 202.539 30.824 203.008C31.7627 203.477 32.568 204.128 33.24 204.96C33.9013 205.781 34.4133 206.752 34.776 207.872C35.128 208.981 35.304 210.176 35.304 211.456C35.304 212.277 35.208 213.093 35.016 213.904C34.824 214.715 34.552 215.493 34.2 216.24C33.848 216.987 33.4267 217.696 32.936 218.368C32.4347 219.029 31.8747 219.621 31.256 220.144H31.272L31.208 220.176C30.9413 220.411 30.696 220.528 30.472 220.528C30.3547 220.528 30.2427 220.496 30.136 220.432C30.0293 220.368 29.912 220.272 29.784 220.144L29.256 219.616C29.1173 219.456 28.9627 219.285 28.792 219.104C28.6213 218.923 28.4667 218.741 28.328 218.56C28.1893 218.379 28.072 218.213 27.976 218.064C27.88 217.904 27.832 217.776 27.832 217.68C27.832 217.531 27.88 217.392 27.976 217.264C28.072 217.136 28.1627 217.029 28.248 216.944L28.312 216.88V216.896C28.664 216.523 29 216.107 29.32 215.648C29.64 215.179 29.928 214.699 30.184 214.208C30.4293 213.717 30.6267 213.232 30.776 212.752C30.9147 212.261 30.984 211.803 30.984 211.376C30.984 210.789 30.9093 210.24 30.76 209.728C30.6107 209.216 30.4027 208.773 30.136 208.4C29.8587 208.027 29.528 207.733 29.144 207.52C28.76 207.307 28.3333 207.2 27.864 207.2C27.3947 207.2 26.9947 207.339 26.664 207.616C26.3227 207.893 26.0293 208.256 25.784 208.704C25.528 209.152 25.3093 209.659 25.128 210.224C24.9467 210.779 24.776 211.339 24.616 211.904C24.2213 213.205 23.7947 214.347 23.336 215.328C22.8773 216.299 22.3653 217.109 21.8 217.76C21.224 218.411 20.584 218.901 19.88 219.232C19.1653 219.552 18.3653 219.712 17.48 219.712C16.488 219.712 15.5867 219.515 14.776 219.12C13.9547 218.715 13.256 218.144 12.68 217.408C12.0933 216.672 11.64 215.787 11.32 214.752C10.9893 213.717 10.824 212.56 10.824 211.28C10.824 210.309 10.9787 209.323 11.288 208.32C11.5867 207.317 12.0027 206.389 12.536 205.536C12.696 205.28 12.8773 205.019 13.08 204.752C13.2827 204.485 13.4907 204.24 13.704 204.016C13.9067 203.792 14.1093 203.611 14.312 203.472C14.504 203.323 14.6693 203.248 14.808 203.248C14.936 203.248 15.0693 203.28 15.208 203.344C15.336 203.408 15.4533 203.488 15.56 203.584L16.072 204.064H16.056C16.2267 204.224 16.4027 204.389 16.584 204.56C16.7653 204.731 16.9307 204.901 17.08 205.072C17.2187 205.243 17.336 205.397 17.432 205.536C17.528 205.675 17.576 205.792 17.576 205.888ZM29.672 184.987C29.5547 184.806 29.4853 184.656 29.464 184.539C29.432 184.411 29.416 184.304 29.416 184.219C29.4267 184.038 29.5227 183.883 29.704 183.755L30.232 183.371L31.848 182.235C31.9227 182.182 32.0027 182.139 32.088 182.107C32.1627 182.075 32.232 182.059 32.296 182.059C32.4667 182.059 32.6213 182.118 32.76 182.235C32.888 182.352 33.0213 182.507 33.16 182.699C33.8213 183.606 34.3547 184.587 34.76 185.643C35.1653 186.688 35.368 187.84 35.368 189.099C35.368 190.048 35.2453 190.971 35 191.867C34.744 192.752 34.392 193.584 33.944 194.363C33.4853 195.131 32.9413 195.835 32.312 196.475C31.672 197.115 30.9627 197.67 30.184 198.139C29.4053 198.598 28.568 198.955 27.672 199.211C26.776 199.456 25.8427 199.579 24.872 199.579C23.9013 199.579 22.968 199.456 22.072 199.211C21.176 198.955 20.3387 198.598 19.56 198.139C18.7813 197.67 18.0773 197.115 17.448 196.475C16.808 195.835 16.264 195.131 15.816 194.363C15.3573 193.584 15.0053 192.752 14.76 191.867C14.504 190.971 14.376 190.048 14.376 189.099C14.376 187.915 14.5573 186.795 14.92 185.739C15.2827 184.683 15.7733 183.744 16.392 182.923L16.376 182.939C16.5253 182.79 16.6587 182.646 16.776 182.507C16.8827 182.358 17.0533 182.283 17.288 182.283C17.352 182.283 17.4267 182.288 17.512 182.299C17.5973 182.299 17.6773 182.326 17.752 182.379L19.752 183.691C20.072 183.904 20.232 184.139 20.232 184.395C20.232 184.576 20.1413 184.779 19.96 185.003C19.5013 185.547 19.128 186.182 18.84 186.907C18.552 187.632 18.408 188.379 18.408 189.147C18.408 189.979 18.584 190.763 18.936 191.499C19.2773 192.224 19.7467 192.864 20.344 193.419C20.9307 193.974 21.6187 194.411 22.408 194.731C23.1867 195.051 24.008 195.211 24.872 195.211C25.7573 195.211 26.5893 195.051 27.368 194.731C28.1467 194.411 28.824 193.979 29.4 193.435C29.976 192.88 30.4347 192.235 30.776 191.499C31.1067 190.763 31.272 189.979 31.272 189.147C31.272 188.24 31.1173 187.456 30.808 186.795C30.488 186.134 30.1093 185.531 29.672 184.987ZM15.624 178.729C15.3147 178.729 15.08 178.628 14.92 178.425C14.76 178.212 14.68 177.983 14.68 177.737V175.705C14.68 175.439 14.76 175.236 14.92 175.097C15.08 174.959 15.2773 174.852 15.512 174.777C15.7467 174.703 16.0027 174.649 16.28 174.617C16.5467 174.585 16.792 174.548 17.016 174.505C16.6853 174.271 16.3653 174.009 16.056 173.721C15.736 173.423 15.4533 173.087 15.208 172.714C14.9627 172.34 14.7653 171.919 14.616 171.449C14.4667 170.98 14.392 170.447 14.392 169.849C14.392 169.316 14.4293 168.836 14.504 168.409C14.568 167.983 14.6747 167.577 14.824 167.193C14.9627 166.799 15.1493 166.415 15.384 166.041C15.608 165.668 15.8747 165.268 16.184 164.841C16.3013 164.66 16.4347 164.505 16.584 164.377C16.7333 164.239 16.9093 164.169 17.112 164.169C17.1973 164.18 17.288 164.196 17.384 164.217C17.48 164.239 17.576 164.281 17.672 164.345L19.752 165.657C19.8587 165.743 19.9387 165.844 19.992 165.961C20.0347 166.068 20.056 166.164 20.056 166.249C20.056 166.42 20.0133 166.585 19.928 166.745C19.736 167.097 19.5547 167.417 19.384 167.705C19.2133 167.993 19.0693 168.276 18.952 168.553C18.824 168.831 18.728 169.119 18.664 169.417C18.5893 169.705 18.552 170.031 18.552 170.393C18.552 171.343 18.856 172.148 19.464 172.809C20.072 173.46 20.9093 173.897 21.976 174.121H34.04C34.68 174.121 35 174.452 35 175.113V177.737C35 178.399 34.68 178.729 34.04 178.729H15.624ZM24.872 161.981C23.9013 161.981 22.968 161.858 22.072 161.613C21.1653 161.357 20.3227 160.999 19.544 160.541C18.7653 160.082 18.0613 159.533 17.432 158.893C16.792 158.253 16.248 157.543 15.8 156.765C15.3413 155.986 14.9893 155.154 14.744 154.269C14.488 153.373 14.36 152.439 14.36 151.469C14.36 150.509 14.488 149.581 14.744 148.685C14.9893 147.789 15.3413 146.957 15.8 146.189C16.248 145.41 16.792 144.701 17.432 144.061C18.0613 143.421 18.7653 142.871 19.544 142.413C20.3227 141.954 21.1653 141.602 22.072 141.357C22.968 141.101 23.9013 140.973 24.872 140.973C25.8427 140.973 26.776 141.101 27.672 141.357C28.568 141.602 29.4053 141.954 30.184 142.413C30.952 142.871 31.656 143.421 32.296 144.061C32.936 144.701 33.4853 145.41 33.944 146.189C34.392 146.957 34.744 147.789 35 148.685C35.2453 149.581 35.368 150.509 35.368 151.469C35.368 152.439 35.2453 153.373 35 154.269C34.744 155.154 34.392 155.986 33.944 156.765C33.4853 157.543 32.936 158.253 32.296 158.893C31.656 159.533 30.952 160.082 30.184 160.541C29.4053 160.999 28.568 161.357 27.672 161.613C26.776 161.858 25.8427 161.981 24.872 161.981ZM24.872 157.469C25.7253 157.469 26.536 157.319 27.304 157.021C28.0613 156.722 28.7227 156.306 29.288 155.773C29.8533 155.239 30.3013 154.61 30.632 153.885C30.9627 153.149 31.128 152.349 31.128 151.485C31.128 150.642 30.9627 149.863 30.632 149.149C30.3013 148.423 29.8533 147.799 29.288 147.277C28.7227 146.754 28.0613 146.349 27.304 146.061C26.536 145.762 25.7253 145.613 24.872 145.613C24.0293 145.613 23.224 145.762 22.456 146.061C21.688 146.349 21.016 146.754 20.44 147.277C19.8533 147.799 19.3893 148.423 19.048 149.149C18.696 149.863 18.52 150.642 18.52 151.485C18.52 152.349 18.696 153.149 19.048 153.885C19.3893 154.61 19.8533 155.239 20.44 155.773C21.016 156.306 21.688 156.722 22.456 157.021C23.224 157.319 24.0293 157.469 24.872 157.469ZM9.608 137.322C9.33067 137.322 9.10133 137.248 8.92 137.098C8.73867 136.949 8.648 136.72 8.648 136.41V133.61C8.648 133.397 8.73867 133.2 8.92 133.018C9.10133 132.826 9.33067 132.73 9.608 132.73H34.04C34.36 132.73 34.6 132.821 34.76 133.002C34.92 133.173 35 133.408 35 133.706L35 136.378C35 136.72 34.92 136.965 34.76 137.114C34.6 137.253 34.36 137.322 34.04 137.322H9.608ZM9.608 128.229C9.33067 128.229 9.10133 128.154 8.92 128.005C8.73867 127.855 8.648 127.626 8.648 127.317V124.517C8.648 124.303 8.73867 124.106 8.92 123.925C9.10133 123.733 9.33067 123.637 9.608 123.637H34.04C34.36 123.637 34.6 123.727 34.76 123.909C34.92 124.079 35 124.314 35 124.613V127.285C35 127.626 34.92 127.871 34.76 128.021C34.6 128.159 34.36 128.229 34.04 128.229H9.608ZM23.144 88.3997C24.2533 88.3997 25.32 88.5437 26.344 88.8317C27.3573 89.1197 28.3067 89.5251 29.192 90.0477C30.0667 90.5704 30.8613 91.1997 31.576 91.9357C32.2907 92.6611 32.904 93.4717 33.416 94.3677C33.9173 95.2637 34.3067 96.2291 34.584 97.2637C34.8613 98.2877 35 99.3597 35 100.48V108.16C35 108.352 34.9573 108.522 34.872 108.672C34.7867 108.821 34.6053 108.896 34.328 108.896H11.992C11.4907 108.896 11.24 108.65 11.24 108.16V100.48C11.24 98.7837 11.5493 97.2051 12.168 95.7437C12.776 94.2717 13.6187 92.9917 14.696 91.9037C15.7627 90.8157 17.0213 89.9624 18.472 89.3437C19.912 88.7144 21.4693 88.3997 23.144 88.3997ZM15.64 104.272H30.616V102.752C30.616 101.952 30.6 101.152 30.568 100.352C30.536 99.2957 30.3227 98.3197 29.928 97.4237C29.5227 96.5277 28.984 95.7544 28.312 95.1037C27.64 94.4424 26.856 93.9304 25.96 93.5677C25.0533 93.1944 24.0827 93.0077 23.048 93.0077C21.9493 93.0077 20.9467 93.2104 20.04 93.6157C19.1227 94.0104 18.3387 94.5544 17.688 95.2477C17.0373 95.9411 16.536 96.7517 16.184 97.6797C15.8213 98.6077 15.64 99.5944 15.64 100.64V104.272ZM24.872 85.137C23.9013 85.137 22.968 85.0143 22.072 84.769C21.1653 84.513 20.3227 84.1557 19.544 83.697C18.7653 83.2383 18.0613 82.689 17.432 82.049C16.792 81.409 16.248 80.6997 15.8 79.921C15.3413 79.1423 14.9893 78.3103 14.744 77.425C14.488 76.529 14.36 75.5957 14.36 74.625C14.36 73.665 14.488 72.737 14.744 71.841C14.9893 70.945 15.3413 70.113 15.8 69.345C16.248 68.5663 16.792 67.857 17.432 67.217C18.0613 66.577 18.7653 66.0277 19.544 65.569C20.3227 65.1103 21.1653 64.7583 22.072 64.513C22.968 64.257 23.9013 64.129 24.872 64.129C25.8427 64.129 26.776 64.257 27.672 64.513C28.568 64.7583 29.4053 65.1103 30.184 65.569C30.952 66.0277 31.656 66.577 32.296 67.217C32.936 67.857 33.4853 68.5663 33.944 69.345C34.392 70.113 34.744 70.945 35 71.841C35.2453 72.737 35.368 73.665 35.368 74.625C35.368 75.5957 35.2453 76.529 35 77.425C34.744 78.3103 34.392 79.1423 33.944 79.921C33.4853 80.6997 32.936 81.409 32.296 82.049C31.656 82.689 30.952 83.2383 30.184 83.697C29.4053 84.1557 28.568 84.513 27.672 84.769C26.776 85.0143 25.8427 85.137 24.872 85.137ZM24.872 80.625C25.7253 80.625 26.536 80.4757 27.304 80.177C28.0613 79.8783 28.7227 79.4623 29.288 78.929C29.8533 78.3957 30.3013 77.7663 30.632 77.041C30.9627 76.305 31.128 75.505 31.128 74.641C31.128 73.7983 30.9627 73.0197 30.632 72.305C30.3013 71.5797 29.8533 70.9557 29.288 70.433C28.7227 69.9103 28.0613 69.505 27.304 69.217C26.536 68.9183 25.7253 68.769 24.872 68.769C24.0293 68.769 23.224 68.9183 22.456 69.217C21.688 69.505 21.016 69.9103 20.44 70.433C19.8533 70.9557 19.3893 71.5797 19.048 72.305C18.696 73.0197 18.52 73.7983 18.52 74.641C18.52 75.505 18.696 76.305 19.048 77.041C19.3893 77.7663 19.8533 78.3957 20.44 78.929C21.016 79.4623 21.688 79.8783 22.456 80.177C23.224 80.4757 24.0293 80.625 24.872 80.625ZM15.976 62.0947C15.976 62.0947 15.9547 62.1001 15.912 62.1107C15.8693 62.1214 15.816 62.1374 15.752 62.1587C15.688 62.1694 15.6187 62.1801 15.544 62.1908C15.4693 62.2014 15.4053 62.2067 15.352 62.2067C15.1493 62.2067 14.9893 62.1374 14.872 61.9987C14.744 61.8494 14.68 61.6307 14.68 61.3427V58.4627C14.68 57.9614 14.9253 57.6254 15.416 57.4547C15.9707 57.2627 16.6267 57.0334 17.384 56.7667C18.1413 56.4894 18.9413 56.2014 19.784 55.9027C20.6267 55.5934 21.48 55.2787 22.344 54.9587C23.1973 54.6387 24.008 54.3401 24.776 54.0627C25.5333 53.7747 26.216 53.5187 26.824 53.2947C27.4213 53.0601 27.8747 52.8787 28.184 52.7507C26.8293 52.2707 25.096 51.6574 22.984 50.9107C20.872 50.1641 18.344 49.2521 15.4 48.1747C15.144 48.0787 14.9627 47.9507 14.856 47.7907C14.7387 47.6201 14.68 47.4067 14.68 47.1507V44.3667C14.68 44.0361 14.7333 43.8121 14.84 43.6947C14.9467 43.5667 15.0853 43.5027 15.256 43.5027C15.3413 43.5027 15.448 43.5187 15.576 43.5507C15.704 43.5721 15.8 43.5934 15.864 43.6147L19.912 45.2787C20.4453 45.0654 21.0427 44.8201 21.704 44.5427C22.3547 44.2547 23.0427 43.9561 23.768 43.6467C24.4827 43.3267 25.2133 43.0121 25.96 42.7027C26.7067 42.3827 27.432 42.0841 28.136 41.8067C27.624 41.6147 27.032 41.3907 26.36 41.1347C25.688 40.8681 24.9733 40.5961 24.216 40.3187C23.4587 40.0307 22.68 39.7374 21.88 39.4387C21.08 39.1294 20.296 38.8307 19.528 38.5427C18.7493 38.2441 18.008 37.9614 17.304 37.6947C16.6 37.4281 15.9653 37.1881 15.4 36.9747C15.144 36.8787 14.9627 36.7561 14.856 36.6067C14.7387 36.4574 14.68 36.2601 14.68 36.0147V33.3587C14.68 33.0494 14.728 32.8147 14.824 32.6547C14.9093 32.4947 15.064 32.4147 15.288 32.4147C15.3627 32.4147 15.464 32.4254 15.592 32.4467C15.72 32.4681 15.8107 32.4894 15.864 32.5107L34.36 40.0627C34.4347 40.1054 34.5093 40.1534 34.584 40.2067C34.6587 40.2494 34.728 40.3134 34.792 40.3987C34.856 40.4734 34.9093 40.5747 34.952 40.7027C34.984 40.8201 35 40.9641 35 41.1347V42.5107C35 42.8841 34.9307 43.1401 34.792 43.2787C34.6533 43.4174 34.504 43.5294 34.344 43.6147C32.8187 44.2441 31.3093 44.8681 29.816 45.4867C28.312 46.1054 26.7973 46.7241 25.272 47.3427L34.36 51.0227C34.5093 51.1081 34.6533 51.2147 34.792 51.3427C34.9307 51.4601 35 51.6841 35 52.0147V53.4867C35 53.8707 34.936 54.1321 34.808 54.2708C34.6693 54.3987 34.52 54.4947 34.36 54.5587L15.976 62.0947ZM15.624 29.635C15.4747 29.635 15.3147 29.571 15.144 29.443C14.9733 29.315 14.8667 29.1923 14.824 29.075C14.7387 28.9897 14.696 28.8617 14.696 28.691C14.6853 28.5203 14.68 28.3603 14.68 28.211V26.595C14.68 26.2857 14.7813 26.0563 14.984 25.907C15.1867 25.7577 15.4107 25.6563 15.656 25.603L17.352 25.427C16.9893 25.1817 16.632 24.883 16.28 24.531C15.928 24.1683 15.6133 23.7417 15.336 23.251C15.0587 22.7603 14.8347 22.2003 14.664 21.571C14.4933 20.9417 14.408 20.2323 14.408 19.443C14.408 18.1843 14.6373 17.0643 15.096 16.083C15.544 15.1017 16.1627 14.275 16.952 13.603C17.7413 12.931 18.6693 12.4243 19.736 12.083C20.8027 11.731 21.9493 11.555 23.176 11.555H33.848C34.232 11.555 34.52 11.6457 34.712 11.827C34.904 12.0083 35 12.2697 35 12.611V15.043C35 15.4697 34.92 15.7577 34.76 15.907C34.6 16.0457 34.3173 16.115 33.912 16.115H23.256C22.6907 16.115 22.1413 16.211 21.608 16.403C21.064 16.595 20.5787 16.8777 20.152 17.251C19.7253 17.6137 19.384 18.067 19.128 18.611C18.872 19.155 18.744 19.7843 18.744 20.499C18.744 20.9897 18.8453 21.5017 19.048 22.035C19.24 22.5577 19.5173 23.0377 19.88 23.475C20.2427 23.9123 20.6853 24.275 21.208 24.563C21.72 24.851 22.3013 25.0003 22.952 25.011H33.32C33.5227 25.011 33.7253 25.0217 33.928 25.043C34.1307 25.0643 34.312 25.1123 34.472 25.187C34.632 25.251 34.76 25.347 34.856 25.475C34.952 25.603 35 25.7683 35 25.971V28.611C35 28.963 34.92 29.2243 34.76 29.395C34.5893 29.555 34.3493 29.635 34.04 29.635H15.624Z" fill="#212329"/>
<path fill-rule="evenodd" clip-rule="evenodd" d="M24.5 232.062C24.0939 232.062 23.7044 232.224 23.4173 232.511C23.1301 232.798 22.9688 233.188 22.9688 233.594L22.9688 269.71L13.3341 260.072C13.0466 259.785 12.6566 259.623 12.25 259.623C11.8434 259.623 11.4534 259.785 11.1659 260.072C10.8784 260.36 10.7168 260.75 10.7168 261.156C10.7168 261.563 10.8784 261.953 11.1659 262.24L23.4159 274.49C23.5581 274.633 23.7271 274.746 23.9131 274.823C24.0992 274.9 24.2986 274.94 24.5 274.94C24.7014 274.94 24.9009 274.9 25.0869 274.823C25.2729 274.746 25.4419 274.633 25.5841 274.49L37.8341 262.24C37.9765 262.098 38.0894 261.929 38.1665 261.743C38.2435 261.557 38.2832 261.358 38.2832 261.156C38.2832 260.75 38.1217 260.36 37.8341 260.072C37.5466 259.785 37.1566 259.623 36.75 259.623C36.3434 259.623 35.9534 259.785 35.6659 260.072L26.0313 269.71L26.0313 233.594C26.0313 233.188 25.8699 232.798 25.5828 232.511C25.2956 232.224 24.9061 232.062 24.5 232.062Z" fill="#212329"/>
</svg>
