<svg width="47" height="84" viewBox="0 0 47 84" fill="none" xmlns="http://www.w3.org/2000/svg">
<path d="M23.9169 47.5311C16.9664 42.5252 16.9653 35.5285 17.6471 28.9969C12.9187 32.2154 7.79225 34.801 2.39868 36.6876C2.00072 36.3341 1.69252 35.8906 1.49944 35.3938C1.30636 34.8969 1.23389 34.3608 1.28799 33.8294C7.37246 32.5168 16.6808 27.3389 16.6808 27.3389C10.6537 24.6598 5.68383 21.5257 4.09436 12.641C10.4458 12.8641 15.2391 14.4666 18.29 19.5452C16.2697 13.6214 16.582 5.63589 22.206 0C25.4628 5.02988 27.7031 12.782 25.4394 19.2148C30.5842 12.2022 38.9919 10.6593 46.3144 12.616C43.9949 20.9552 36.4357 23.3461 28.9868 25.3591C35.7463 26.7072 40.9518 32.8107 43.6954 38.1347C35.9025 40.0693 29.2078 36.0005 25.0697 31.2752C28.3029 37.3596 27.5948 42.4839 23.9169 47.5311Z" fill="#FF9331"/>
<path d="M21.8759 83.0993C15.9982 81.485 14.2526 76.8394 13.088 72.3215C9.68959 77.33 4.88325 81.2114 4.88325 81.2114C4.52796 81.0749 4.21008 80.8561 3.95565 80.5729C3.70123 80.2897 3.51751 79.9502 3.41955 79.5822C7.15703 77.2105 12.0754 71.4652 12.0754 71.4652C7.36119 71.1689 3.26587 70.3061 0 64.7909C4.2904 63.3758 7.90545 63.2642 11.1803 65.8816C8.36047 62.4384 6.59531 57.0404 8.93646 51.9161C12.36 54.4633 15.7747 59.065 15.8673 63.9007C17.5556 57.978 22.7816 54.8669 28.1505 54.3591C28.6769 60.4778 24.2086 63.9312 19.7616 67.1074C24.6043 66.3363 29.5909 69.1088 32.7424 71.9773C28.0279 75.1671 22.5546 74.1289 18.6168 72.0075C22.2689 75.2511 23.0743 78.8325 21.8759 83.0993Z" fill="#FF9331"/>
</svg>
