<svg width="350" height="350" viewBox="0 0 350 350" fill="none" xmlns="http://www.w3.org/2000/svg">
<mask id="mask0_288_165" style="mask-type:alpha" maskUnits="userSpaceOnUse" x="0" y="0" width="350" height="350">
<rect width="350" height="350" rx="20" fill="white"/>
</mask>
<g mask="url(#mask0_288_165)">
<path d="M56.311 338.364C56.311 336.846 56.5333 335.504 56.978 334.339C57.438 333.158 58.0743 332.246 58.887 331.602C59.715 330.958 60.6657 330.636 61.739 330.636C63.5637 330.636 64.982 331.311 65.994 332.66C67.0213 334.009 67.535 335.895 67.535 338.318C67.535 339.882 67.2973 341.262 66.822 342.458C66.362 343.654 65.7103 344.582 64.867 345.241C64.0237 345.885 63.0423 346.207 61.923 346.207C60.8037 346.207 59.8147 345.885 58.956 345.241C58.1127 344.597 57.461 343.685 57.001 342.504C56.541 341.308 56.311 339.928 56.311 338.364ZM57.691 338.41C57.691 339.744 57.8673 340.925 58.22 341.952C58.588 342.979 59.094 343.777 59.738 344.344C60.382 344.911 61.118 345.195 61.946 345.195C62.774 345.195 63.5023 344.911 64.131 344.344C64.775 343.761 65.2733 342.956 65.626 341.929C65.9787 340.886 66.155 339.698 66.155 338.364C66.155 337.03 65.9787 335.857 65.626 334.845C65.2887 333.833 64.8057 333.051 64.177 332.499C63.5483 331.932 62.82 331.648 61.992 331.648C61.1487 331.648 60.3973 331.932 59.738 332.499C59.094 333.066 58.588 333.864 58.22 334.891C57.8673 335.918 57.691 337.091 57.691 338.41ZM75.3909 330.636C76.4183 330.636 77.3229 330.835 78.1049 331.234C78.9023 331.633 79.5156 332.2 79.9449 332.936C80.3896 333.672 80.6119 334.515 80.6119 335.466C80.6119 336.171 80.4433 336.884 80.1059 337.605C79.7839 338.31 79.3086 339.215 78.6799 340.319C77.4533 342.435 76.2496 344.329 75.0689 346H73.5509L77.2999 340.043C76.7633 340.396 76.0426 340.572 75.1379 340.572C74.2026 340.572 73.3439 340.35 72.5619 339.905C71.7953 339.445 71.1819 338.824 70.7219 338.042C70.2773 337.26 70.0549 336.401 70.0549 335.466C70.0549 334.531 70.2773 333.695 70.7219 332.959C71.1819 332.223 71.8183 331.656 72.6309 331.257C73.4436 330.843 74.3636 330.636 75.3909 330.636ZM71.4349 335.466C71.4349 336.248 71.6036 336.953 71.9409 337.582C72.2783 338.195 72.7459 338.678 73.3439 339.031C73.9419 339.368 74.6166 339.537 75.3679 339.537C76.1346 339.537 76.8169 339.368 77.4149 339.031C78.0129 338.678 78.4806 338.195 78.8179 337.582C79.1553 336.969 79.3239 336.279 79.3239 335.512C79.3239 334.347 78.9559 333.411 78.2199 332.706C77.4993 332.001 76.5333 331.648 75.3219 331.648C74.1413 331.648 73.1983 331.993 72.4929 332.683C71.7876 333.373 71.4349 334.301 71.4349 335.466ZM87.6823 346H86.3023V332.154L82.6913 333.028V331.832L87.6823 330.659V346ZM100.695 331.855L95.9795 336.8C96.9149 336.739 97.7889 336.923 98.6015 337.352C99.4142 337.781 100.066 338.387 100.557 339.169C101.047 339.936 101.293 340.794 101.293 341.745C101.293 342.68 101.047 343.485 100.557 344.16C100.081 344.835 99.4449 345.348 98.6475 345.701C97.8502 346.038 96.9839 346.207 96.0485 346.207C94.8832 346.207 93.8175 345.939 92.8515 345.402C91.9009 344.85 91.1649 344.068 90.6435 343.056L91.7935 342.32C92.2229 343.225 92.8285 343.938 93.6105 344.459C94.4079 344.965 95.3049 345.218 96.3015 345.218C97.4055 345.218 98.2795 344.919 98.9235 344.321C99.5829 343.708 99.9125 342.849 99.9125 341.745C99.9125 340.457 99.4602 339.476 98.5555 338.801C97.6509 338.126 96.5085 337.789 95.1285 337.789C94.6225 337.789 94.0092 337.827 93.2885 337.904L98.9695 331.993H91.7245V330.981H100.695V331.855Z" fill="black"/>
<path d="M126.246 20.195C127.764 20.195 129.19 19.689 130.524 18.677L131.26 19.643C130.662 20.149 129.957 20.54 129.144 20.816C128.347 21.0767 127.473 21.207 126.522 21.207C124.958 21.207 123.547 20.8773 122.29 20.218C121.048 19.5433 120.074 18.6157 119.369 17.435C118.664 16.2543 118.311 14.928 118.311 13.456C118.311 11.9687 118.656 10.6347 119.346 9.454C120.051 8.258 121.017 7.32267 122.244 6.648C123.471 5.97333 124.843 5.636 126.361 5.636C127.296 5.636 128.17 5.774 128.983 6.05C129.811 6.31067 130.532 6.694 131.145 7.2L130.409 8.12C129.704 7.59867 129.037 7.223 128.408 6.993C127.795 6.763 127.12 6.648 126.384 6.648C125.127 6.648 123.984 6.947 122.957 7.545C121.945 8.12767 121.148 8.94033 120.565 9.983C119.982 11.0257 119.691 12.191 119.691 13.479C119.691 14.7517 119.975 15.9017 120.542 16.929C121.109 17.941 121.891 18.7383 122.888 19.321C123.885 19.9037 125.004 20.195 126.246 20.195ZM140.012 21.207C138.51 21.207 137.16 20.8773 135.964 20.218C134.768 19.5433 133.833 18.6233 133.158 17.458C132.499 16.2773 132.169 14.9433 132.169 13.456C132.169 11.9687 132.507 10.6347 133.181 9.454C133.856 8.258 134.791 7.32267 135.987 6.648C137.183 5.97333 138.525 5.636 140.012 5.636C141.515 5.636 142.857 5.97333 144.037 6.648C145.233 7.30733 146.161 8.235 146.82 9.431C147.495 10.6117 147.832 11.9533 147.832 13.456C147.832 14.9433 147.495 16.2773 146.82 17.458C146.161 18.6387 145.233 19.5587 144.037 20.218C142.857 20.8773 141.515 21.207 140.012 21.207ZM133.549 13.433C133.549 14.7363 133.825 15.9017 134.377 16.929C134.929 17.9563 135.696 18.7613 136.677 19.344C137.659 19.9267 138.77 20.218 140.012 20.218C141.254 20.218 142.366 19.9343 143.347 19.367C144.329 18.7843 145.088 17.9793 145.624 16.952C146.176 15.9247 146.452 14.7593 146.452 13.456C146.452 12.1527 146.176 10.9873 145.624 9.96C145.072 8.91733 144.306 8.10467 143.324 7.522C142.343 6.93933 141.231 6.648 139.989 6.648C138.747 6.648 137.636 6.93933 136.654 7.522C135.673 8.08933 134.906 8.89433 134.354 9.937C133.818 10.9643 133.549 12.1297 133.549 13.433ZM151.581 7.706V21H150.201V5.981H152.064L157.469 14.491L162.897 5.981H164.737V21H163.357V7.752L157.469 17.021L151.581 7.706ZM169.257 21H167.877V5.981H169.257V21ZM177.383 21H175.98V6.993H171.104V5.981H182.259V6.993H177.383V21ZM191.673 13.709V21H190.293V5.981H199.171V6.993H191.673V12.697H198.665V13.709H191.673ZM202.365 21H200.985V5.981H202.365V21ZM206.88 19.988H215.114V21H205.5V5.981H206.88V19.988ZM218.267 7.706V21H216.887V5.981H218.75L224.155 14.491L229.583 5.981H231.423V21H230.043V7.752L224.155 17.021L218.267 7.706Z" fill="black"/>
<path d="M329 75.8157L329 74.4127L343.007 74.4127L343.007 69.5367L344.019 69.5367L344.019 80.6917L343.007 80.6917L343.007 75.8157L329 75.8157ZM344.019 85.8493L344.019 87.5053L329 93.7153L329 92.3123L333.393 90.4953L333.393 82.9283L329 81.1343L329 79.6853L344.019 85.8493ZM334.405 90.0813L342.616 86.7233L334.405 83.3423L334.405 90.0813ZM344.019 95.4419L344.019 96.8219L337.418 96.8219L344.019 104.067L344.019 105.769L336.728 97.9489L329 106.229L329 104.32L335.992 96.8219L329 96.8219L329 95.4419L344.019 95.4419ZM336.153 109.355L330.012 109.355L330.012 117.106L329 117.106L329 107.975L344.019 107.975L344.019 116.853L343.007 116.853L343.007 109.355L337.165 109.355L337.165 116.347L336.153 116.347L336.153 109.355ZM344.019 124.136L344.019 125.723L335.946 131.174L344.019 136.533L344.019 138.143L334.612 131.841L329 131.841L329 130.461L334.612 130.461L344.019 124.136ZM328.793 146.931C328.793 145.429 329.123 144.079 329.782 142.883C330.457 141.687 331.377 140.752 332.542 140.077C333.723 139.418 335.057 139.088 336.544 139.088C338.031 139.088 339.365 139.426 340.546 140.1C341.742 140.775 342.677 141.71 343.352 142.906C344.027 144.102 344.364 145.444 344.364 146.931C344.364 148.434 344.027 149.776 343.352 150.956C342.693 152.152 341.765 153.08 340.569 153.739C339.388 154.414 338.047 154.751 336.544 154.751C335.057 154.751 333.723 154.414 332.542 153.739C331.361 153.08 330.441 152.152 329.782 150.956C329.123 149.776 328.793 148.434 328.793 146.931ZM336.567 140.468C335.264 140.468 334.098 140.744 333.071 141.296C332.044 141.848 331.239 142.615 330.656 143.596C330.073 144.578 329.782 145.689 329.782 146.931C329.782 148.173 330.066 149.285 330.633 150.266C331.216 151.248 332.021 152.007 333.048 152.543C334.075 153.095 335.241 153.371 336.544 153.371C337.847 153.371 339.013 153.095 340.04 152.543C341.083 151.991 341.895 151.225 342.478 150.243C343.061 149.262 343.352 148.15 343.352 146.908C343.352 145.666 343.061 144.555 342.478 143.573C341.911 142.592 341.106 141.825 340.063 141.273C339.036 140.737 337.87 140.468 336.567 140.468ZM335.233 168.873C333.132 168.873 331.515 168.367 330.38 167.355C329.245 166.343 328.678 164.901 328.678 163.031C328.678 161.129 329.245 159.665 330.38 158.638C331.515 157.626 333.132 157.12 335.233 157.12L344.019 157.12L344.019 158.5L334.796 158.5C333.171 158.5 331.913 158.891 331.024 159.673C330.135 160.47 329.69 161.582 329.69 163.008C329.69 164.434 330.135 165.538 331.024 166.32C331.913 167.102 333.171 167.493 334.796 167.493L344.019 167.493L344.019 168.873L335.233 168.873ZM335.417 178.129L335.417 173.391L329 173.391L329 172.011L344.019 172.011L344.019 177.646C344.019 179.318 343.636 180.613 342.869 181.533C342.102 182.469 341.021 182.936 339.626 182.936C337.403 182.936 336.061 181.794 335.601 179.509L329 182.798L329 181.257L335.417 178.129ZM336.429 177.6C336.429 180.238 337.495 181.556 339.626 181.556C340.745 181.556 341.589 181.188 342.156 180.452C342.723 179.716 343.007 178.635 343.007 177.209L343.007 173.391L336.429 173.391L336.429 177.6ZM342.294 193.179L329 193.179L329 191.799L344.019 191.799L344.019 193.662L335.509 199.067L344.019 204.495L344.019 206.335L329 206.335L329 204.955L342.248 204.955L332.979 199.067L342.294 193.179ZM336.153 210.856L330.012 210.856L330.012 218.607L329 218.607L329 209.476L344.019 209.476L344.019 218.354L343.007 218.354L343.007 210.856L337.165 210.856L337.165 217.848L336.153 217.848L336.153 210.856ZM342.294 222.244L329 222.244L329 220.864L344.019 220.864L344.019 222.727L335.509 228.132L344.019 233.56L344.019 235.4L329 235.4L329 234.02L342.248 234.02L332.979 228.132L342.294 222.244ZM328.793 245.625C328.793 244.122 329.123 242.773 329.782 241.577C330.457 240.381 331.377 239.445 332.542 238.771C333.723 238.111 335.057 237.782 336.544 237.782C338.031 237.782 339.365 238.119 340.546 238.794C341.742 239.468 342.677 240.404 343.352 241.6C344.027 242.796 344.364 244.137 344.364 245.625C344.364 247.127 344.027 248.469 343.352 249.65C342.693 250.846 341.765 251.773 340.569 252.433C339.388 253.107 338.047 253.445 336.544 253.445C335.057 253.445 333.723 253.107 332.542 252.433C331.361 251.773 330.441 250.846 329.782 249.65C329.123 248.469 328.793 247.127 328.793 245.625ZM336.567 239.162C335.264 239.162 334.098 239.438 333.071 239.99C332.044 240.542 331.239 241.308 330.656 242.29C330.073 243.271 329.782 244.383 329.782 245.625C329.782 246.867 330.066 247.978 330.633 248.96C331.216 249.941 332.021 250.7 333.048 251.237C334.075 251.789 335.241 252.065 336.544 252.065C337.847 252.065 339.013 251.789 340.04 251.237C341.083 250.685 341.895 249.918 342.478 248.937C343.061 247.955 343.352 246.844 343.352 245.602C343.352 244.36 343.061 243.248 342.478 242.267C341.911 241.285 341.106 240.519 340.063 239.967C339.036 239.43 337.87 239.162 336.567 239.162ZM335.417 261.931L335.417 257.193L329 257.193L329 255.813L344.019 255.813L344.019 261.448C344.019 263.119 343.636 264.415 342.869 265.335C342.102 266.27 341.021 266.738 339.626 266.738C337.403 266.738 336.061 265.596 335.601 263.311L329 266.6L329 265.059L335.417 261.931ZM336.429 261.402C336.429 264.039 337.495 265.358 339.626 265.358C340.745 265.358 341.589 264.99 342.156 264.254C342.723 263.518 343.007 262.437 343.007 261.011L343.007 257.193L336.429 257.193L336.429 261.402ZM344.019 266.853L344.019 268.44L335.946 273.891L344.019 279.25L344.019 280.86L334.612 274.558L329 274.558L329 273.178L334.612 273.178L344.019 266.853Z" fill="black"/>
<path d="M7.89 92.9752C7.2 92.5765 6.65567 91.9632 6.257 91.1352C5.843 90.2918 5.636 89.3718 5.636 88.3752C5.636 87.4245 5.82767 86.5812 6.211 85.8452C6.579 85.1092 7.10033 84.5418 7.775 84.1432C8.44967 83.7292 9.224 83.5222 10.098 83.5222C11.3553 83.5222 12.6433 84.0205 13.962 85.0172C14.8973 85.7378 15.7943 86.5352 16.653 87.4092C17.4963 88.2678 18.5543 89.4102 19.827 90.8362L19.827 82.8552L21 82.8552L21 92.8372L20.034 92.8372L18.838 91.5722C17.688 90.3302 16.7067 89.2952 15.894 88.4672C15.0813 87.6392 14.33 86.9492 13.64 86.3972C12.9807 85.8605 12.3827 85.4848 11.846 85.2702C11.3093 85.0402 10.742 84.9252 10.144 84.9252C9.07067 84.9252 8.22733 85.2318 7.614 85.8452C7.00067 86.4432 6.694 87.2712 6.694 88.3292C6.694 89.0958 6.86267 89.8088 7.2 90.4682C7.522 91.1122 7.97433 91.6182 8.557 91.9862L7.89 92.9752ZM17.228 79.2963L17.228 73.1553L11.225 73.1553L11.225 71.7753L17.228 71.7753L17.228 69.2913L18.217 69.2913L18.217 71.7753L21 71.7753L21 73.1553L18.24 73.1553L18.24 81.2743L5.981 76.0073L5.981 74.4893L17.228 79.2963Z" fill="black"/>
<path d="M14 44L22.6603 62.75H5.33975L14 44Z" fill="black"/>
</g>
</svg>
