<svg width="376" height="74" viewBox="0 0 376 74" fill="none" xmlns="http://www.w3.org/2000/svg">
<rect width="376" height="74" rx="10" fill="#603EBB"/>
<path d="M36.4 22.2825C36.4 22.0492 36.4758 21.8625 36.6275 21.7225C36.7908 21.5825 36.9892 21.5125 37.2225 21.5125H56.07C56.28 21.5125 56.4667 21.5767 56.63 21.705C56.7933 21.8333 56.8867 22.0258 56.91 22.2825V26.64C56.91 26.85 56.8342 27.0542 56.6825 27.2525C56.5425 27.4392 56.3383 27.5325 56.07 27.5325H50.0325V46.6775C50.0325 46.8875 49.9567 47.08 49.805 47.255C49.6533 47.4183 49.455 47.5 49.21 47.5H44.065C43.8667 47.5 43.68 47.4242 43.505 47.2725C43.33 47.1092 43.2425 46.9108 43.2425 46.6775V27.5325H37.2225C36.9892 27.5325 36.7908 27.4567 36.6275 27.305C36.4758 27.1533 36.4 26.9317 36.4 26.64V22.2825ZM65.1476 22.195C65.1592 22.125 65.1942 22.0492 65.2526 21.9675C65.3226 21.8858 65.4042 21.81 65.4976 21.74C65.5909 21.67 65.6901 21.6175 65.7951 21.5825C65.9001 21.5358 65.9992 21.5125 66.0926 21.5125H70.5726C70.7709 21.5125 70.9401 21.5767 71.0801 21.705C71.2201 21.8217 71.3251 21.9267 71.3951 22.02L71.8326 23.0175L81.0201 46.7125C81.1134 46.9458 81.0959 47.1383 80.9676 47.29C80.8392 47.43 80.6176 47.5 80.3026 47.5H75.2801C75.0117 47.5 74.8017 47.4533 74.6501 47.36C74.5101 47.255 74.3992 47.0858 74.3176 46.8525C74.0842 46.2575 73.8567 45.6683 73.6351 45.085C73.4134 44.49 73.1917 43.895 72.9701 43.3H63.6776C63.4559 43.895 63.2284 44.49 62.9951 45.085C62.7734 45.6683 62.5517 46.2575 62.3301 46.8525C62.1784 47.2842 61.8809 47.5 61.4376 47.5H56.2751C56.0534 47.5 55.8667 47.4417 55.7151 47.325C55.5751 47.2083 55.5517 47.0333 55.6451 46.8L65.1476 22.195ZM68.3326 29.685C68.1109 30.28 67.8834 30.9217 67.6501 31.61C67.4284 32.2983 67.2067 32.9925 66.9851 33.6925C66.7634 34.3925 66.5359 35.0867 66.3026 35.775C66.0809 36.4517 65.8592 37.0875 65.6376 37.6825H71.0101L68.3326 29.685ZM84.472 22.2825C84.472 22.0725 84.5361 21.8917 84.6645 21.74C84.8045 21.5883 84.997 21.5125 85.242 21.5125H90.422C90.597 21.5125 90.7778 21.5825 90.9645 21.7225C91.1628 21.8625 91.262 22.0492 91.262 22.2825V31.82C92.5336 30.1867 93.782 28.5767 95.007 26.99C96.232 25.4033 97.4745 23.7933 98.7345 22.16C98.8628 21.9617 99.0261 21.8042 99.2245 21.6875C99.4345 21.5592 99.6386 21.495 99.837 21.495H106.487C106.767 21.495 106.907 21.5825 106.907 21.7575C106.907 21.8742 106.843 22.0142 106.714 22.1775L98.472 33.045L107.589 46.765C107.718 46.9633 107.782 47.1208 107.782 47.2375C107.782 47.4125 107.654 47.5 107.397 47.5H100.782C100.584 47.5 100.385 47.4417 100.187 47.325C100 47.2083 99.8428 47.0508 99.7145 46.8525C99.0961 46.0125 98.5303 45.2075 98.017 44.4375C97.5153 43.6675 97.0253 42.9033 96.547 42.145C96.0686 41.375 95.5845 40.5992 95.0945 39.8175C94.6045 39.0358 94.0678 38.2133 93.4845 37.35L91.262 39.905V46.73C91.262 47.2433 90.982 47.5 90.422 47.5H85.2595C84.7345 47.5 84.472 47.2433 84.472 46.73V22.2825ZM111.27 22.3175C111.27 22.0725 111.334 21.88 111.462 21.74C111.602 21.5883 111.795 21.5125 112.04 21.5125H129.417C129.674 21.5125 129.872 21.5883 130.012 21.74C130.152 21.8917 130.222 22.0958 130.222 22.3525V26.6925C130.222 26.8908 130.152 27.0833 130.012 27.27C129.872 27.445 129.668 27.5325 129.4 27.5325H118.06V31.855H126.81C127.031 31.855 127.212 31.9075 127.352 32.0125C127.504 32.1175 127.58 32.2925 127.58 32.5375V36.3175C127.58 36.4808 127.515 36.6383 127.387 36.79C127.259 36.9417 127.072 37.0175 126.827 37.0175H118.06V41.48H129.82C130.345 41.48 130.607 41.7483 130.607 42.285V46.695C130.607 46.8117 130.56 46.9167 130.467 47.01C130.42 47.3367 130.181 47.5 129.75 47.5H112.04C111.806 47.5 111.62 47.4417 111.48 47.325C111.34 47.1967 111.27 47.0042 111.27 46.7475V22.3175ZM153.297 22.195C153.309 22.125 153.344 22.0492 153.402 21.9675C153.472 21.8858 153.554 21.81 153.647 21.74C153.74 21.67 153.839 21.6175 153.944 21.5825C154.049 21.5358 154.149 21.5125 154.242 21.5125H158.722C158.92 21.5125 159.089 21.5767 159.229 21.705C159.369 21.8217 159.474 21.9267 159.544 22.02L159.982 23.0175L169.169 46.7125C169.263 46.9458 169.245 47.1383 169.117 47.29C168.989 47.43 168.767 47.5 168.452 47.5H163.429C163.161 47.5 162.951 47.4533 162.799 47.36C162.659 47.255 162.549 47.0858 162.467 46.8525C162.234 46.2575 162.006 45.6683 161.784 45.085C161.563 44.49 161.341 43.895 161.119 43.3H151.827C151.605 43.895 151.378 44.49 151.144 45.085C150.923 45.6683 150.701 46.2575 150.479 46.8525C150.328 47.2842 150.03 47.5 149.587 47.5H144.424C144.203 47.5 144.016 47.4417 143.864 47.325C143.724 47.2083 143.701 47.0333 143.794 46.8L153.297 22.195ZM156.482 29.685C156.26 30.28 156.033 30.9217 155.799 31.61C155.578 32.2983 155.356 32.9925 155.134 33.6925C154.913 34.3925 154.685 35.0867 154.452 35.775C154.23 36.4517 154.009 37.0875 153.787 37.6825H159.159L156.482 29.685ZM183.296 22.3175C183.296 22.0725 183.36 21.88 183.488 21.74C183.616 21.5883 183.809 21.5125 184.066 21.5125H195.248C196.053 21.5125 196.811 21.6233 197.523 21.845C198.235 22.0667 198.888 22.3758 199.483 22.7725C200.078 23.1575 200.615 23.6242 201.093 24.1725C201.571 24.7092 201.974 25.2925 202.301 25.9225C202.639 26.5525 202.896 27.2175 203.071 27.9175C203.246 28.6058 203.333 29.3058 203.333 30.0175C203.333 31.0675 203.141 32.0942 202.756 33.0975C202.382 34.1008 201.846 34.9933 201.146 35.775C200.446 36.5567 199.606 37.1925 198.626 37.6825C197.646 38.1608 196.561 38.4058 195.371 38.4175H190.068V46.7475C190.068 47.2492 189.8 47.5 189.263 47.5H184.066C183.832 47.5 183.646 47.4417 183.506 47.325C183.366 47.1967 183.296 47.0042 183.296 46.7475V22.3175ZM196.473 29.9825C196.473 29.6325 196.409 29.2825 196.281 28.9325C196.164 28.5825 195.989 28.2733 195.756 28.005C195.522 27.725 195.236 27.4975 194.898 27.3225C194.571 27.1475 194.198 27.06 193.778 27.06H190.068V32.905H193.778C194.198 32.905 194.577 32.8233 194.916 32.66C195.254 32.485 195.534 32.2633 195.756 31.995C195.989 31.7267 196.164 31.4175 196.281 31.0675C196.409 30.7175 196.473 30.3558 196.473 29.9825ZM207.214 22.2825C207.214 22.0725 207.278 21.8917 207.406 21.74C207.535 21.5883 207.727 21.5125 207.984 21.5125H213.129C213.304 21.5125 213.49 21.5825 213.689 21.7225C213.887 21.8625 213.986 22.0492 213.986 22.2825V46.73C213.986 47.2433 213.7 47.5 213.129 47.5H207.984C207.47 47.5 207.214 47.2433 207.214 46.73V22.2825ZM239.447 23.4025C239.645 23.5192 239.791 23.6708 239.884 23.8575C239.978 24.0442 239.96 24.2658 239.832 24.5225L236.874 28.7225C236.746 28.9208 236.606 29.0375 236.454 29.0725C236.314 29.0958 236.139 29.0433 235.929 28.915C235.358 28.4833 234.728 28.1508 234.039 27.9175C233.351 27.6842 232.622 27.5675 231.852 27.5675C230.895 27.5675 230.014 27.7483 229.209 28.11C228.404 28.4717 227.71 28.9675 227.127 29.5975C226.543 30.2275 226.088 30.9625 225.762 31.8025C225.435 32.6425 225.272 33.5408 225.272 34.4975C225.272 35.4542 225.435 36.3525 225.762 37.1925C226.088 38.0208 226.543 38.75 227.127 39.38C227.71 39.9983 228.404 40.4883 229.209 40.85C230.014 41.2117 230.895 41.3925 231.852 41.3925C232.622 41.3925 233.357 41.2758 234.057 41.0425C234.757 40.7975 235.393 40.4592 235.964 40.0275C236.174 39.8992 236.349 39.8467 236.489 39.87C236.629 39.8933 236.769 39.9983 236.909 40.185L239.902 44.49C240.03 44.7467 240.048 44.9625 239.954 45.1375C239.861 45.3125 239.715 45.4583 239.517 45.575C238.42 46.31 237.236 46.8817 235.964 47.29C234.704 47.6867 233.374 47.885 231.974 47.885C230.738 47.885 229.548 47.7275 228.404 47.4125C227.273 47.0975 226.211 46.6483 225.219 46.065C224.228 45.4817 223.323 44.7875 222.507 43.9825C221.702 43.1658 221.008 42.2675 220.424 41.2875C219.841 40.2958 219.392 39.2342 219.077 38.1025C218.762 36.9592 218.604 35.7692 218.604 34.5325C218.604 33.2958 218.762 32.1117 219.077 30.98C219.392 29.8367 219.841 28.7692 220.424 27.7775C221.008 26.7742 221.702 25.8642 222.507 25.0475C223.323 24.2308 224.228 23.5367 225.219 22.965C226.211 22.3817 227.273 21.9325 228.404 21.6175C229.548 21.2908 230.738 21.1275 231.974 21.1275C233.374 21.1275 234.693 21.3258 235.929 21.7225C237.178 22.1075 238.35 22.6675 239.447 23.4025ZM242.845 22.2825C242.845 22.0492 242.921 21.8625 243.073 21.7225C243.236 21.5825 243.434 21.5125 243.668 21.5125H262.515C262.725 21.5125 262.912 21.5767 263.075 21.705C263.239 21.8333 263.332 22.0258 263.355 22.2825V26.64C263.355 26.85 263.279 27.0542 263.128 27.2525C262.988 27.4392 262.784 27.5325 262.515 27.5325H256.478V46.6775C256.478 46.8875 256.402 47.08 256.25 47.255C256.099 47.4183 255.9 47.5 255.655 47.5H250.51C250.312 47.5 250.125 47.4242 249.95 47.2725C249.775 47.1092 249.688 46.9108 249.688 46.6775V27.5325H243.668C243.434 27.5325 243.236 27.4567 243.073 27.305C242.921 27.1533 242.845 26.9317 242.845 26.64V22.2825ZM274.276 37.1225C274.276 37.9858 274.393 38.7208 274.626 39.3275C274.871 39.9225 275.186 40.4125 275.571 40.7975C275.968 41.1708 276.423 41.445 276.936 41.62C277.461 41.795 278.003 41.8825 278.563 41.8825C279.147 41.8825 279.695 41.7833 280.208 41.585C280.733 41.375 281.188 41.0717 281.573 40.675C281.97 40.2667 282.279 39.765 282.501 39.17C282.734 38.575 282.851 37.8925 282.851 37.1225V22.2825C282.851 22.0725 282.921 21.8917 283.061 21.74C283.213 21.5883 283.411 21.5125 283.656 21.5125H288.766C289.034 21.5125 289.244 21.5942 289.396 21.7575C289.548 21.9092 289.623 22.0842 289.623 22.2825V37.035C289.623 39.0767 289.32 40.7917 288.713 42.18C288.118 43.5683 287.313 44.6883 286.298 45.54C285.283 46.38 284.105 46.9867 282.763 47.36C281.433 47.7217 280.033 47.9025 278.563 47.9025C277.093 47.9025 275.688 47.7158 274.346 47.3425C273.004 46.9575 271.826 46.3392 270.811 45.4875C269.796 44.6242 268.985 43.5042 268.378 42.1275C267.783 40.7392 267.486 39.0417 267.486 37.035V22.2825C267.486 22.0842 267.55 21.9092 267.678 21.7575C267.818 21.5942 267.988 21.5125 268.186 21.5125H273.436C273.611 21.5125 273.792 21.5883 273.978 21.74C274.177 21.88 274.276 22.0608 274.276 22.2825V37.1225ZM294.747 22.3175C294.747 22.0725 294.811 21.88 294.94 21.74C295.068 21.5883 295.26 21.5125 295.517 21.5125H306.822C308.024 21.5125 309.15 21.74 310.2 22.195C311.25 22.6383 312.165 23.245 312.947 24.015C313.729 24.785 314.341 25.6892 314.785 26.7275C315.24 27.7542 315.467 28.8508 315.467 30.0175C315.467 30.8108 315.356 31.5692 315.135 32.2925C314.925 33.0042 314.627 33.675 314.242 34.305C313.857 34.9233 313.396 35.4892 312.86 36.0025C312.335 36.5042 311.757 36.9358 311.127 37.2975L315.625 45.7675C315.706 45.9308 315.811 46.1233 315.94 46.345C316.068 46.5667 316.132 46.7592 316.132 46.9225C316.132 47.1092 316.068 47.255 315.94 47.36C315.823 47.4533 315.66 47.5 315.45 47.5H309.447C309.249 47.5 309.068 47.4417 308.905 47.325C308.753 47.2083 308.654 47.0508 308.607 46.8525L304.355 38.855H301.52V46.7475C301.52 47.2492 301.251 47.5 300.715 47.5H295.517C295.284 47.5 295.097 47.4417 294.957 47.325C294.817 47.1967 294.747 47.0042 294.747 46.7475V22.3175ZM308.45 30.0875C308.45 29.7375 308.385 29.3875 308.257 29.0375C308.129 28.6875 307.948 28.3667 307.715 28.075C307.481 27.7833 307.201 27.5383 306.875 27.34C306.548 27.1417 306.186 27.0133 305.79 26.955C305.463 26.9317 305.154 26.9142 304.862 26.9025C304.582 26.8792 304.273 26.8675 303.935 26.8675H301.52V33.29H304.74C304.95 33.29 305.136 33.2842 305.3 33.2725C305.463 33.2608 305.644 33.2433 305.842 33.22C306.25 33.1733 306.618 33.0567 306.945 32.87C307.271 32.6717 307.545 32.4325 307.767 32.1525C307.989 31.8608 308.158 31.54 308.275 31.19C308.391 30.8283 308.45 30.4608 308.45 30.0875ZM319.321 22.3175C319.321 22.0725 319.386 21.88 319.514 21.74C319.654 21.5883 319.846 21.5125 320.091 21.5125H337.469C337.726 21.5125 337.924 21.5883 338.064 21.74C338.204 21.8917 338.274 22.0958 338.274 22.3525V26.6925C338.274 26.8908 338.204 27.0833 338.064 27.27C337.924 27.445 337.72 27.5325 337.451 27.5325H326.111V31.855H334.861C335.083 31.855 335.264 31.9075 335.404 32.0125C335.556 32.1175 335.631 32.2925 335.631 32.5375V36.3175C335.631 36.4808 335.567 36.6383 335.439 36.79C335.311 36.9417 335.124 37.0175 334.879 37.0175H326.111V41.48H337.871C338.396 41.48 338.659 41.7483 338.659 42.285V46.695C338.659 46.8117 338.612 46.9167 338.519 47.01C338.472 47.3367 338.233 47.5 337.801 47.5H320.091C319.858 47.5 319.671 47.4417 319.531 47.325C319.391 47.1967 319.321 47.0042 319.321 46.7475V22.3175Z" fill="white"/>
</svg>
