<svg width="510" height="208" viewBox="0 0 510 208" fill="none" xmlns="http://www.w3.org/2000/svg">
<path d="M49.819 24.9855C50.2553 25.2422 50.5762 25.5758 50.7815 25.9865C50.9868 26.3972 50.9483 26.8848 50.666 27.4495L44.1595 36.6895C43.8772 37.1258 43.5692 37.3825 43.2355 37.4595C42.9275 37.5108 42.5425 37.3953 42.0805 37.113C40.8228 36.1633 39.4368 35.4318 37.9225 34.9185C36.4082 34.4052 34.804 34.1485 33.11 34.1485C31.0053 34.1485 29.0675 34.5463 27.2965 35.342C25.5255 36.1377 23.9983 37.2285 22.715 38.6145C21.4317 40.0005 20.4307 41.6175 19.712 43.4655C18.9933 45.3135 18.634 47.2898 18.634 49.3945C18.634 51.4992 18.9933 53.4755 19.712 55.3235C20.4307 57.1458 21.4317 58.75 22.715 60.136C23.9983 61.4963 25.5255 62.5743 27.2965 63.37C29.0675 64.1657 31.0053 64.5635 33.11 64.5635C34.804 64.5635 36.421 64.3068 37.961 63.7935C39.501 63.2545 40.8998 62.5102 42.1575 61.5605C42.6195 61.2782 43.0045 61.1627 43.3125 61.214C43.6205 61.2653 43.9285 61.4963 44.2365 61.907L50.82 71.378C51.1023 71.9427 51.1408 72.4175 50.9355 72.8025C50.7302 73.1875 50.4093 73.5083 49.973 73.765C47.5603 75.382 44.9552 76.6397 42.1575 77.538C39.3855 78.4107 36.4595 78.847 33.3795 78.847C30.6588 78.847 28.0408 78.5005 25.5255 77.8075C23.0358 77.1145 20.7002 76.1263 18.5185 74.843C16.3368 73.5597 14.3477 72.0325 12.551 70.2615C10.78 68.4648 9.25283 66.4885 7.9695 64.3325C6.68617 62.1508 5.698 59.8152 5.005 57.3255C4.312 54.8102 3.9655 52.1922 3.9655 49.4715C3.9655 46.7508 4.312 44.1457 5.005 41.656C5.698 39.1407 6.68617 36.7922 7.9695 34.6105C9.25283 32.4032 10.78 30.4012 12.551 28.6045C14.3477 26.8078 16.3368 25.2807 18.5185 24.023C20.7002 22.7397 23.0358 21.7515 25.5255 21.0585C28.0408 20.3398 30.6588 19.9805 33.3795 19.9805C36.4595 19.9805 39.3598 20.4168 42.0805 21.2895C44.8268 22.1365 47.4063 23.3685 49.819 24.9855ZM69.235 49.433C69.235 51.5633 69.5944 53.5525 70.313 55.4005C71.0317 57.2485 72.0327 58.8655 73.316 60.2515C74.625 61.6118 76.165 62.6898 77.936 63.4855C79.707 64.2555 81.6577 64.6405 83.788 64.6405C85.9184 64.6405 87.869 64.2555 89.64 63.4855C91.4367 62.6898 92.9767 61.6118 94.26 60.2515C95.569 58.8655 96.5829 57.2485 97.3015 55.4005C98.0202 53.5525 98.3795 51.5633 98.3795 49.433C98.3795 47.3283 98.0202 45.352 97.3015 43.504C96.5829 41.6303 95.569 40.0005 94.26 38.6145C92.9767 37.2285 91.4367 36.1377 89.64 35.342C87.869 34.5463 85.9184 34.1485 83.788 34.1485C81.6577 34.1485 79.707 34.5463 77.936 35.342C76.165 36.1377 74.625 37.2285 73.316 38.6145C72.0327 40.0005 71.0317 41.6303 70.313 43.504C69.5944 45.352 69.235 47.3283 69.235 49.433ZM54.374 49.4715C54.374 46.7508 54.7205 44.1457 55.4135 41.656C56.1065 39.1407 57.0947 36.7922 58.378 34.6105C59.6614 32.4032 61.1885 30.4012 62.9595 28.6045C64.7562 26.8078 66.7454 25.2807 68.927 24.023C71.1087 22.7397 73.4444 21.7515 75.934 21.0585C78.4494 20.3398 81.0674 19.9805 83.788 19.9805C86.483 19.9805 89.0882 20.3398 91.6035 21.0585C94.1189 21.7515 96.4674 22.7397 98.649 24.023C100.831 25.2807 102.82 26.8078 104.617 28.6045C106.413 30.4012 107.94 32.4032 109.198 34.6105C110.481 36.7922 111.47 39.1407 112.163 41.656C112.881 44.1457 113.241 46.7508 113.241 49.4715C113.241 52.1922 112.881 54.8102 112.163 57.3255C111.47 59.8152 110.481 62.1508 109.198 64.3325C107.94 66.4885 106.413 68.4648 104.617 70.2615C102.82 72.0325 100.831 73.5597 98.649 74.843C96.4674 76.1263 94.1189 77.1145 91.6035 77.8075C89.0882 78.5005 86.483 78.847 83.788 78.847C81.0674 78.847 78.4494 78.5005 75.934 77.8075C73.4444 77.1145 71.1087 76.1263 68.927 74.843C66.7454 73.5597 64.7562 72.0325 62.9595 70.2615C61.1885 68.4648 59.6614 66.4885 58.378 64.3325C57.0947 62.1508 56.1065 59.8152 55.4135 57.3255C54.7205 54.8102 54.374 52.1922 54.374 49.4715ZM125.872 22.5215C125.923 22.0595 126.103 21.6617 126.411 21.328C126.719 20.9943 127.155 20.8275 127.72 20.8275H141.041C141.99 20.8275 142.606 21.3152 142.889 22.2905L153.361 57.2485L163.91 22.2905C164.269 21.3152 164.923 20.8275 165.873 20.8275H179.04C179.502 20.8275 179.913 20.9943 180.272 21.328C180.657 21.636 180.875 22.0338 180.927 22.5215C181.825 31.5562 182.736 40.5267 183.66 49.433C184.61 58.3137 185.534 67.2713 186.432 76.306V76.4985C186.432 77.4995 185.867 78 184.738 78H173.843C172.662 78 172.046 77.4353 171.995 76.306L168.645 46.5455L159.983 76.4985C159.931 76.7552 159.739 77.0632 159.405 77.4225C159.097 77.7818 158.789 77.9615 158.481 77.9615H148.356C148.048 77.9615 147.714 77.7947 147.355 77.461C147.021 77.1017 146.841 76.7808 146.816 76.4985L138.153 46.6225L134.804 76.306C134.752 77.4353 134.123 78 132.917 78H122.022C120.918 78 120.366 77.4353 120.366 76.306L125.872 22.5215ZM196.822 22.5215C196.822 22.0595 196.963 21.6617 197.246 21.328C197.528 20.9943 197.952 20.8275 198.516 20.8275H209.835C210.22 20.8275 210.631 20.9815 211.067 21.2895C211.504 21.5975 211.722 22.0082 211.722 22.5215V76.306C211.722 77.4353 211.093 78 209.835 78H198.516C197.387 78 196.822 77.4353 196.822 76.306V22.5215ZM220.996 22.5215C220.996 22.0082 221.163 21.5975 221.497 21.2895C221.856 20.9815 222.292 20.8275 222.806 20.8275H264.27C264.732 20.8275 265.143 20.9687 265.502 21.251C265.861 21.5333 266.067 21.9568 266.118 22.5215V32.108C266.118 32.57 265.951 33.0192 265.618 33.4555C265.31 33.8662 264.86 34.0715 264.27 34.0715H250.988V76.1905C250.988 76.6525 250.821 77.076 250.487 77.461C250.153 77.8203 249.717 78 249.178 78H237.859C237.423 78 237.012 77.8332 236.627 77.4995C236.242 77.1402 236.05 76.7038 236.05 76.1905V34.0715H222.806C222.292 34.0715 221.856 33.9047 221.497 33.571C221.163 33.2373 220.996 32.7497 220.996 32.108V22.5215Z" fill="#603EBB"/>
<path d="M4.544 122.952C4.544 122.504 4.66133 122.152 4.896 121.896C5.13067 121.619 5.48267 121.48 5.952 121.48H26.4C27.872 121.48 29.2587 121.683 30.56 122.088C31.8613 122.493 33.056 123.059 34.144 123.784C35.232 124.488 36.2133 125.341 37.088 126.344C37.9627 127.325 38.6987 128.392 39.296 129.544C39.9147 130.696 40.384 131.912 40.704 133.192C41.024 134.451 41.184 135.731 41.184 137.032C41.184 138.952 40.832 140.829 40.128 142.664C39.4453 144.499 38.464 146.131 37.184 147.56C35.904 148.989 34.368 150.152 32.576 151.048C30.784 151.923 28.8 152.371 26.624 152.392H16.928V167.624C16.928 168.541 16.4373 169 15.456 169H5.952C5.52533 169 5.184 168.893 4.928 168.68C4.672 168.445 4.544 168.093 4.544 167.624V122.952ZM28.64 136.968C28.64 136.328 28.5227 135.688 28.288 135.048C28.0747 134.408 27.7547 133.843 27.328 133.352C26.9013 132.84 26.3787 132.424 25.76 132.104C25.1627 131.784 24.48 131.624 23.712 131.624H16.928V142.312H23.712C24.48 142.312 25.1733 142.163 25.792 141.864C26.4107 141.544 26.9227 141.139 27.328 140.648C27.7547 140.157 28.0747 139.592 28.288 138.952C28.5227 138.312 28.64 137.651 28.64 136.968ZM59.128 132.616C59.5333 132.019 60.088 131.432 60.792 130.856C61.5173 130.259 62.3387 129.736 63.256 129.288C64.1947 128.819 65.2293 128.445 66.36 128.168C67.4907 127.869 68.6853 127.72 69.944 127.72C72.376 127.72 74.4773 128.189 76.248 129.128C78.04 130.067 79.512 131.347 80.664 132.968C81.8373 134.589 82.7013 136.488 83.256 138.664C83.832 140.819 84.12 143.123 84.12 145.576V166.536C84.12 167.347 83.9387 167.965 83.576 168.392C83.2347 168.797 82.68 169 81.912 169H74.52C73.6027 169 72.9733 168.851 72.632 168.552C72.2907 168.232 72.12 167.624 72.12 166.728V145.576C72.12 144.659 71.9387 143.805 71.576 143.016C71.2347 142.227 70.7653 141.544 70.168 140.968C69.5707 140.371 68.8667 139.912 68.056 139.592C67.2667 139.251 66.424 139.08 65.528 139.08C64.76 139.08 64.0027 139.24 63.256 139.56C62.5307 139.859 61.8693 140.296 61.272 140.872C60.696 141.427 60.2053 142.099 59.8 142.888C59.416 143.677 59.192 144.552 59.128 145.512V166.632C59.128 166.995 59.0533 167.357 58.904 167.72C58.776 168.083 58.5733 168.36 58.296 168.552C58.0187 168.723 57.752 168.84 57.496 168.904C57.2613 168.968 56.984 169 56.664 169H49.432C48.5147 169 47.8533 168.776 47.448 168.328C47.0427 167.88 46.84 167.283 46.84 166.536V140.488V140.264V130.728V130.568V118.696C46.84 117.971 47.0427 117.384 47.448 116.936C47.8533 116.488 48.5147 116.264 49.432 116.264H56.664C57.1547 116.264 57.6987 116.435 58.296 116.776C58.5733 116.968 58.776 117.245 58.904 117.608C59.0533 117.971 59.128 118.312 59.128 118.632V132.616ZM90.5295 148.712C90.5295 146.749 90.7748 144.861 91.2655 143.048C91.7775 141.235 92.4815 139.56 93.3775 138.024C94.2948 136.467 95.3828 135.059 96.6415 133.8C97.9215 132.52 99.3402 131.432 100.898 130.536C102.455 129.64 104.13 128.947 105.922 128.456C107.735 127.965 109.623 127.72 111.586 127.72C114.487 127.72 117.207 128.264 119.746 129.352C122.306 130.419 124.524 131.901 126.402 133.8C128.3 135.677 129.794 137.896 130.882 140.456C131.991 142.995 132.546 145.747 132.546 148.712C132.546 150.675 132.29 152.563 131.778 154.376C131.287 156.168 130.583 157.843 129.666 159.4C128.77 160.957 127.682 162.376 126.402 163.656C125.143 164.915 123.735 166.003 122.178 166.92C120.62 167.816 118.946 168.509 117.154 169C115.383 169.491 113.527 169.736 111.586 169.736C109.623 169.736 107.735 169.491 105.922 169C104.13 168.509 102.455 167.816 100.898 166.92C99.3402 166.003 97.9215 164.915 96.6415 163.656C95.3828 162.376 94.2948 160.957 93.3775 159.4C92.4815 157.843 91.7775 156.168 91.2655 154.376C90.7748 152.563 90.5295 150.675 90.5295 148.712ZM102.21 148.712C102.21 150.12 102.423 151.443 102.85 152.68C103.298 153.896 103.916 154.952 104.706 155.848C105.516 156.744 106.487 157.459 107.618 157.992C108.77 158.504 110.06 158.76 111.49 158.76C112.876 158.76 114.124 158.504 115.234 157.992C116.364 157.459 117.314 156.744 118.082 155.848C118.871 154.952 119.468 153.896 119.874 152.68C120.3 151.443 120.514 150.12 120.514 148.712C120.514 147.347 120.3 146.045 119.874 144.808C119.468 143.571 118.871 142.483 118.082 141.544C117.314 140.605 116.364 139.869 115.234 139.336C114.124 138.781 112.876 138.504 111.49 138.504C110.06 138.504 108.77 138.781 107.618 139.336C106.487 139.869 105.516 140.605 104.706 141.544C103.916 142.483 103.298 143.571 102.85 144.808C102.423 146.045 102.21 147.347 102.21 148.712ZM138.867 122.024C138.867 121.363 139.08 120.872 139.507 120.552C139.955 120.211 140.584 119.891 141.395 119.592L148.659 117.064C148.765 117.043 148.861 117.032 148.947 117.032C149.053 117.032 149.149 117.032 149.235 117.032C150.024 117.032 150.547 117.267 150.803 117.736C151.08 118.184 151.219 118.781 151.219 119.528L151.187 128.328H155.571C156.253 128.328 156.808 128.531 157.235 128.936C157.661 129.341 157.875 129.949 157.875 130.76V136.936C157.875 137.832 157.661 138.493 157.235 138.92C156.808 139.325 156.253 139.528 155.571 139.528H151.187L151.219 166.536C151.219 167.347 150.984 167.965 150.515 168.392C150.045 168.797 149.395 169 148.562 169H141.331C139.688 169 138.867 168.179 138.867 166.536L138.835 139.528H135.539C133.896 139.528 133.075 138.664 133.075 136.936V130.76C133.075 129.139 133.896 128.328 135.539 128.328H138.835L138.867 122.024ZM161.467 148.712C161.467 146.749 161.712 144.861 162.203 143.048C162.715 141.235 163.419 139.56 164.315 138.024C165.232 136.467 166.32 135.059 167.579 133.8C168.859 132.52 170.278 131.432 171.835 130.536C173.392 129.64 175.067 128.947 176.859 128.456C178.672 127.965 180.56 127.72 182.523 127.72C185.424 127.72 188.144 128.264 190.683 129.352C193.243 130.419 195.462 131.901 197.339 133.8C199.238 135.677 200.731 137.896 201.819 140.456C202.928 142.995 203.483 145.747 203.483 148.712C203.483 150.675 203.227 152.563 202.715 154.376C202.224 156.168 201.52 157.843 200.603 159.4C199.707 160.957 198.619 162.376 197.339 163.656C196.08 164.915 194.672 166.003 193.115 166.92C191.558 167.816 189.883 168.509 188.091 169C186.32 169.491 184.464 169.736 182.523 169.736C180.56 169.736 178.672 169.491 176.859 169C175.067 168.509 173.392 167.816 171.835 166.92C170.278 166.003 168.859 164.915 167.579 163.656C166.32 162.376 165.232 160.957 164.315 159.4C163.419 157.843 162.715 156.168 162.203 154.376C161.712 152.563 161.467 150.675 161.467 148.712ZM173.147 148.712C173.147 150.12 173.36 151.443 173.787 152.68C174.235 153.896 174.854 154.952 175.643 155.848C176.454 156.744 177.424 157.459 178.555 157.992C179.707 158.504 180.998 158.76 182.427 158.76C183.814 158.76 185.062 158.504 186.171 157.992C187.302 157.459 188.251 156.744 189.019 155.848C189.808 154.952 190.406 153.896 190.811 152.68C191.238 151.443 191.451 150.12 191.451 148.712C191.451 147.347 191.238 146.045 190.811 144.808C190.406 143.571 189.808 142.483 189.019 141.544C188.251 140.605 187.302 139.869 186.171 139.336C185.062 138.781 183.814 138.504 182.427 138.504C180.998 138.504 179.707 138.781 178.555 139.336C177.424 139.869 176.454 140.605 175.643 141.544C174.854 142.483 174.235 143.571 173.787 144.808C173.36 146.045 173.147 147.347 173.147 148.712ZM231.183 122.952C231.183 122.504 231.3 122.152 231.535 121.896C231.791 121.619 232.143 121.48 232.591 121.48H253.839C255.716 121.48 257.487 121.843 259.151 122.568C260.815 123.272 262.265 124.253 263.503 125.512C264.761 126.749 265.753 128.211 266.479 129.896C267.204 131.56 267.567 133.352 267.567 135.272C267.567 136.872 267.311 138.365 266.799 139.752C266.308 141.117 265.604 142.344 264.687 143.432C266.223 144.84 267.439 146.515 268.335 148.456C269.231 150.397 269.679 152.456 269.679 154.632C269.679 156.573 269.305 158.419 268.559 160.168C267.812 161.896 266.799 163.421 265.519 164.744C264.26 166.045 262.777 167.08 261.071 167.848C259.385 168.616 257.604 169 255.727 169H232.591C232.164 169 231.823 168.893 231.567 168.68C231.311 168.445 231.183 168.093 231.183 167.624V122.952ZM256.975 154.152C256.975 153.512 256.847 152.872 256.591 152.232C256.356 151.592 256.015 151.027 255.567 150.536C255.14 150.024 254.617 149.608 253.999 149.288C253.401 148.968 252.751 148.808 252.047 148.808H243.599V159.496H252.047C252.751 159.496 253.401 159.347 253.999 159.048C254.596 158.749 255.119 158.355 255.567 157.864C256.015 157.352 256.356 156.776 256.591 156.136C256.847 155.496 256.975 154.835 256.975 154.152ZM255.279 135.56C255.279 134.92 255.161 134.323 254.927 133.768C254.692 133.213 254.361 132.723 253.935 132.296C253.508 131.869 252.996 131.539 252.399 131.304C251.801 131.048 251.151 130.92 250.447 130.92H243.599V140.2H250.351C251.076 140.2 251.737 140.093 252.335 139.88C252.953 139.645 253.476 139.325 253.903 138.92C254.329 138.493 254.66 138.003 254.895 137.448C255.151 136.872 255.279 136.243 255.279 135.56ZM273.78 148.712C273.78 146.749 274.025 144.861 274.516 143.048C275.028 141.235 275.732 139.56 276.628 138.024C277.545 136.467 278.633 135.059 279.892 133.8C281.172 132.52 282.59 131.432 284.148 130.536C285.705 129.64 287.38 128.947 289.172 128.456C290.985 127.965 292.873 127.72 294.836 127.72C297.737 127.72 300.457 128.264 302.996 129.352C305.556 130.419 307.774 131.901 309.652 133.8C311.55 135.677 313.044 137.896 314.132 140.456C315.241 142.995 315.796 145.747 315.796 148.712C315.796 150.675 315.54 152.563 315.028 154.376C314.537 156.168 313.833 157.843 312.916 159.4C312.02 160.957 310.932 162.376 309.652 163.656C308.393 164.915 306.985 166.003 305.428 166.92C303.87 167.816 302.196 168.509 300.404 169C298.633 169.491 296.777 169.736 294.836 169.736C292.873 169.736 290.985 169.491 289.172 169C287.38 168.509 285.705 167.816 284.148 166.92C282.59 166.003 281.172 164.915 279.892 163.656C278.633 162.376 277.545 160.957 276.628 159.4C275.732 157.843 275.028 156.168 274.516 154.376C274.025 152.563 273.78 150.675 273.78 148.712ZM285.46 148.712C285.46 150.12 285.673 151.443 286.1 152.68C286.548 153.896 287.166 154.952 287.956 155.848C288.766 156.744 289.737 157.459 290.868 157.992C292.02 158.504 293.31 158.76 294.74 158.76C296.126 158.76 297.374 158.504 298.484 157.992C299.614 157.459 300.564 156.744 301.332 155.848C302.121 154.952 302.718 153.896 303.124 152.68C303.55 151.443 303.764 150.12 303.764 148.712C303.764 147.347 303.55 146.045 303.124 144.808C302.718 143.571 302.121 142.483 301.332 141.544C300.564 140.605 299.614 139.869 298.484 139.336C297.374 138.781 296.126 138.504 294.74 138.504C293.31 138.504 292.02 138.781 290.868 139.336C289.737 139.869 288.766 140.605 287.956 141.544C287.166 142.483 286.548 143.571 286.1 144.808C285.673 146.045 285.46 147.347 285.46 148.712ZM320.905 148.712C320.905 146.749 321.15 144.861 321.641 143.048C322.153 141.235 322.857 139.56 323.753 138.024C324.67 136.467 325.758 135.059 327.017 133.8C328.297 132.52 329.715 131.432 331.273 130.536C332.83 129.64 334.505 128.947 336.297 128.456C338.11 127.965 339.998 127.72 341.961 127.72C344.862 127.72 347.582 128.264 350.121 129.352C352.681 130.419 354.899 131.901 356.777 133.8C358.675 135.677 360.169 137.896 361.257 140.456C362.366 142.995 362.921 145.747 362.921 148.712C362.921 150.675 362.665 152.563 362.153 154.376C361.662 156.168 360.958 157.843 360.041 159.4C359.145 160.957 358.057 162.376 356.777 163.656C355.518 164.915 354.11 166.003 352.553 166.92C350.995 167.816 349.321 168.509 347.529 169C345.758 169.491 343.902 169.736 341.961 169.736C339.998 169.736 338.11 169.491 336.297 169C334.505 168.509 332.83 167.816 331.273 166.92C329.715 166.003 328.297 164.915 327.017 163.656C325.758 162.376 324.67 160.957 323.753 159.4C322.857 157.843 322.153 156.168 321.641 154.376C321.15 152.563 320.905 150.675 320.905 148.712ZM332.585 148.712C332.585 150.12 332.798 151.443 333.225 152.68C333.673 153.896 334.291 154.952 335.081 155.848C335.891 156.744 336.862 157.459 337.993 157.992C339.145 158.504 340.435 158.76 341.865 158.76C343.251 158.76 344.499 158.504 345.609 157.992C346.739 157.459 347.689 156.744 348.457 155.848C349.246 154.952 349.843 153.896 350.249 152.68C350.675 151.443 350.889 150.12 350.889 148.712C350.889 147.347 350.675 146.045 350.249 144.808C349.843 143.571 349.246 142.483 348.457 141.544C347.689 140.605 346.739 139.869 345.609 139.336C344.499 138.781 343.251 138.504 341.865 138.504C340.435 138.504 339.145 138.781 337.993 139.336C336.862 139.869 335.891 140.605 335.081 141.544C334.291 142.483 333.673 143.571 333.225 144.808C332.798 146.045 332.585 147.347 332.585 148.712ZM369.242 122.024C369.242 121.363 369.455 120.872 369.882 120.552C370.33 120.211 370.959 119.891 371.77 119.592L379.034 117.064C379.14 117.043 379.236 117.032 379.322 117.032C379.428 117.032 379.524 117.032 379.61 117.032C380.399 117.032 380.922 117.267 381.178 117.736C381.455 118.184 381.594 118.781 381.594 119.528L381.562 128.328H385.946C386.628 128.328 387.183 128.531 387.61 128.936C388.036 129.341 388.25 129.949 388.25 130.76V136.936C388.25 137.832 388.036 138.493 387.61 138.92C387.183 139.325 386.628 139.528 385.946 139.528H381.562L381.594 166.536C381.594 167.347 381.359 167.965 380.89 168.392C380.42 168.797 379.77 169 378.938 169H371.706C370.063 169 369.242 168.179 369.242 166.536L369.21 139.528H365.914C364.271 139.528 363.45 138.664 363.45 136.936V130.76C363.45 129.139 364.271 128.328 365.914 128.328H369.21L369.242 122.024ZM406.566 132.616C406.971 132.019 407.526 131.432 408.23 130.856C408.955 130.259 409.776 129.736 410.694 129.288C411.632 128.819 412.667 128.445 413.798 128.168C414.928 127.869 416.123 127.72 417.382 127.72C419.814 127.72 421.915 128.189 423.686 129.128C425.478 130.067 426.95 131.347 428.102 132.968C429.275 134.589 430.139 136.488 430.694 138.664C431.27 140.819 431.558 143.123 431.558 145.576V166.536C431.558 167.347 431.376 167.965 431.014 168.392C430.672 168.797 430.118 169 429.35 169H421.958C421.04 169 420.411 168.851 420.07 168.552C419.728 168.232 419.558 167.624 419.558 166.728V145.576C419.558 144.659 419.376 143.805 419.014 143.016C418.672 142.227 418.203 141.544 417.606 140.968C417.008 140.371 416.304 139.912 415.494 139.592C414.704 139.251 413.862 139.08 412.966 139.08C412.198 139.08 411.44 139.24 410.694 139.56C409.968 139.859 409.307 140.296 408.71 140.872C408.134 141.427 407.643 142.099 407.238 142.888C406.854 143.677 406.63 144.552 406.566 145.512V166.632C406.566 166.995 406.491 167.357 406.342 167.72C406.214 168.083 406.011 168.36 405.734 168.552C405.456 168.723 405.19 168.84 404.934 168.904C404.699 168.968 404.422 169 404.102 169H396.87C395.952 169 395.291 168.776 394.886 168.328C394.48 167.88 394.278 167.283 394.278 166.536V140.488V140.264V130.728V130.568V118.696C394.278 117.971 394.48 117.384 394.886 116.936C395.291 116.488 395.952 116.264 396.87 116.264H404.102C404.592 116.264 405.136 116.435 405.734 116.776C406.011 116.968 406.214 117.245 406.342 117.608C406.491 117.971 406.566 118.312 406.566 118.632V132.616Z" fill="black"/>
</svg>
